<svg xmlns="http://www.w3.org/2000/svg" xmlns:xlink="http://www.w3.org/1999/xlink" width="352" height="130" viewBox="0 0 352 130">
  <defs>
    <clipPath id="clip-path">
      <rect id="Rectangle_28" data-name="Rectangle 28" width="352" height="130" transform="translate(139 200)" fill="#fff" stroke="#707070" stroke-width="1"/>
    </clipPath>
  </defs>
  <g id="logo.svg" transform="translate(-139 -200)" clip-path="url(#clip-path)">
    <g id="Groupe_de_masques_6" data-name="Groupe de masques 6" transform="translate(-3.077 -43.335)">
      <path id="a_1_" d="M271.773,243.335l-79.509,129.42h159.1" fill="#ccf"/>
      <path id="t" d="M325.249,372.092l-1.078-1.327h-.083c-.083,0-1.244,1.741-1.492,1.99-.083,0-.5.5-.58.58-.083,0-.083,0-.166-.083h-1.244c-.332-.58-1.078-.829-1.244-1.575H319.2c-.332,0-.332.083-.5.083-.166-.083-.746-1.078-1.078-1.078l-1.244-1.327v-.829c-.415,0-.995-.995-.995-1.575,0-.5.912-.5.995-.5,0-.166-.912-.58-.995-.746-.083-.249-.166-.995-.5-1.078V361.48l.166-.083V359.9c-.166-.083-.166-.083-.166-.249,0,0,0-.083.166-.083v-1.244l-.166-.166v-2.819a.414.414,0,0,0,0-.663v-.829c.332-.083.58-1.078.58-1.327v-.166c-.083,0-.58-.249-.58-.5v-.829l.166-.083v-1.078l-.166-.083v-1.741a2.286,2.286,0,0,0,.58-.746v-.083c-.083-.083-.332-.332-.415-.332v-1.244l-.166-.166v-.995l.166-.083v-3.068c-.166-.083-.166-.083-.166-.249s.166-.083.166-.5c0-.332-.166-.332-.166-.746,0-.083,0-.249.166-.249v-1.824a.162.162,0,0,1-.166-.166c0-.249.166-.249.166-.58,0,0,0-.332-.166-.332v-2.321c.415-.249.332-1.078.58-1.078.332,0,.332.083.415.083v-.912c-.166,0-.995-.166-.995-.58v-2.073c0-.249.415-.5.58-.5h.166l.58.58h.083c.166,0,.415-.083.415-.332,0-.5-.332-1.575-.746-1.575-.5,0-.5.995-.912.995l-.332-.332v-.829l.166-.166v-.995l-.166-.083v-.995c.166,0,.166-.083.166-.249,0-.332-.166-.332-.166-.58,0-.332.415-.332.415-.746,0-.5-.415-1.078-.415-1.575s.415-.746.415-1.078c0-.5-.415-.58-.415-1.078v-.5c.332-.083.083-.5.415-.5.166,0,.166.083.5.083.083,0,.332,0,.332-.249v-1.492h-.5c0,.083-.166.58-.415.58-.166,0-.332-.249-.332-.5s.166-.249.166-.58c0-.995-1.658-1.741-1.658-2.073H311.4c-.332,0-.746-2.321-.746-2.57,0-.083,0-.332.083-.332v-.995c-.083,0-.083-.332-.083-.5,0,0,0-.332.083-.332v-1.492a.627.627,0,0,1-.083-.332.5.5,0,0,1,.083-.332v-.995l-.083-.083V305.6c.746-.249-.083-2.073.912-2.073.415,0,.5.332.829.332h.166a1.07,1.07,0,0,1,1.078-.746c0,.829-.083.746-.083,1.575h.332c0-1.078.912-2.073.912-2.985,0-.083-.166-.083-.166-.332s.166-.249.166-.5c0-.083,0-.5-.166-.5v-1.244l.58-.746-.58-.746h0c0-.083.083-.083.166-.083v-1.824c.083,0,.332-.249.415-.332v-.083a1,1,0,0,1-.58-.995c0-.58.829-.829.829-1.078l-.829-.995v-.083s0-.083.166-.083v-1.078l-.166-.083v-1.244c.415-.083,0-1.078.58-1.078.995,0,.995,1.824,1.658,1.824a7.171,7.171,0,0,0,.829-.58v-.166l-.912-1.078c-.415,0-.58-.249-.58-.746H317.7c0,.083.166.083.332.083.083,0,.166,0,.166-.083h1.741s.083.249.166.249v.083c0,.249-.332.249-.332.58h.746c0-.5-.083-.332-.083-.58,0-.332.166-.332.415-.332.166,0,.995.249.995.58a.081.081,0,0,1-.083.083v1.492l.083.249v1.078c-.332.083-.332.58-.332.829v.5c.083,0,.995,0,.995.5,0,.166,0,.166-.083.249v1.244c.083,0,.083,0,.166-.166a1.173,1.173,0,0,0,1.492-1.244,2.932,2.932,0,0,1-.083-.5c0-.249-.166-.249-.5-.249-.166,0-.166.166-.5.166s-.415-.166-.415-.5c0-.5.995-1.244.995-1.492,0-.166-.083-.166-.083-.5s.083-.332.083-.746c0-.5-.332-.746-.332-1.078v-.166l.166-.249h.995l.083.083h.746c.083-.083.415-.083.415-.083.58,0,.5.995.912.995h.083c0-.5.083-.995.415-.995s.332.083.5.083c.083,0,.083-.083.332-.083h.083l.829,1.078c0,.746.332.746.332,1.327,0,.249,0,.58-.332.58s-.415-.746-.415-.829h-.166c-.829,0-.912,1.575-.912,2.239.332,0,.332-.332.58-.332.332,0,.5.332.5.746,0,0,.083.249-.083.332l-.083.332c0,.58.083.995.746,1.244v1.99c.166,0,.166.249.166.332,0,.249-.166.249-.166.5s.166.249.166.332v.083c-.083.166-.166.249-.332.249-.083.083-.332.083-.332.083v-.829s-.58-.332-.912-.166-.415.332-.415.829c0,.249.083.829.5.829,0,0,.083,0,.166-.166h.912v.829l-.083.083v1.244l.083.083v1.078c-.332,0-.5-.249-.58-.249,0,.5,0,.995.5.995.415,0,.415-.249.58-.249.083,0,1.078.746,1.078.995,0,0,0,.166-.083.166v.829c.332,0,.5.166.5-.5,0-.332-.083-.332-.083-.746a3.563,3.563,0,0,1,.829-.746c.332,0,1.327.249,1.327.58v2.57h-.332v.249l.829.829v.166c0,.249-.083.249-.083.332a.5.5,0,0,0,.083.332v.995c-.083,0-.083.083-.083.249,0,.249.083.249.083.5s-.332.249-.332.58c0,.249,0,.5.332.58v2.819c0,.5-.829.58-.995.58v.083c0,.083.083.083.083.249a.552.552,0,0,1-.58.58c-.58,0-.58-.249-1.327-.249v-1.161c-.083,0-.995-.829-.995-1.078s.083-.249.083-.58-.58-.166-.58-.5v-1.244c.166-.083.083-.249.083-.332v-.249l-.58-.746h-.166c-.083,0-.912.249-.912.5v1.492l-.083.166v.995h.829l-.083.249a5.157,5.157,0,0,0-.332,1.327c0,.58.829.083.829.746,0,.249-.332.332-.332.58,0,.829.912,1.741.912,2.487,0,.332-.332.332-.332.829a3.441,3.441,0,0,0,.58,1.078v3.068c-.332.249-.415.332-.415.58,0,.083,0,.332.166.332v1.741l.166.083v.332c0,.58-.415.58-.415,1.244,0,.083.083.083.083.332,0,.166,0,.166-.083.249v.829a.7.7,0,0,1,0,.663v.829c.083.083.083.083.083.249,0,.249-.083.249-.083.5,0,.332,0,.58.415.746v3.731c-.332.083-.58,1.327-.58,1.492,0,.332.58,1.244.58,1.741,0,.166-.166.166-.166.5s.166.332.166.829c0,0,0,.332-.166.332v.995l.166.083v3.98l-.166.166v4.228l.166.083v1.99a1.952,1.952,0,0,0-.415.829c0,.332.415.5.415.746l-.912,1.078h-.083c-.083,0-.083-.166-.166-.166v.332c1.327,0,.415.5,1.244.995v.995c-.166,0-.166.083-.166.083,0,.332.415.332.415.829,0,.332-.083.332-.083.58,0,.58.5,1.078.5,1.575,0,.249-.083.332-.083.5.332,0,.332-.166.5-.166h.083c0,.166.166.332.332.5h1.824c.58,0,.5,1.327.912,1.741v1.741c-.166,0-.083.332-.083.5,0,.249.083.249.083.58a.5.5,0,0,1-.083.332v.995l.083.083v1.741c-.083,0-.083.083-.083.332,0,.083,0,.249.083.249v2.57c-.58.332-.332,1.99-1.492,1.99a1.881,1.881,0,0,1-.332-.083l-.166-.083h-1.244l-.083.083h-.746l-.083-.083H327.57c-.083.083-.166.083-.332.083-.083,0-.166,0-.166-.083C326.078,373.5,325.166,373.17,325.249,372.092Zm-13.6-62.6h.332v-.083h-.332Zm.58-4.892h.58v-.083h-.58Zm.746,6.633c.332,0,.415-.58.829-.58v-1.99h-.083c0,.332-.166.829-.5.829s-.332-.083-.5-.083c-.083,0-.415.083-.415.332,0,.5.58.249.58.746,0,.083-.083.083-.083.332A.343.343,0,0,0,312.978,311.237Zm.912-3.4h.5v-.746C314.056,307.092,313.89,307.589,313.89,307.838Zm.829-2.9h.829c.083-.5.332-.5.332-.829H314.8c-.166,0-.166.249-.166.332C314.471,304.6,314.471,304.936,314.719,304.936Zm.58,4.145h.166l.746-.829a.348.348,0,0,0-.332-.332c-.912,0,.415.746-1.244.58v.083A.722.722,0,0,0,315.3,309.082Zm-.58,5.638h.166v-.166h-.166Zm.912,47.506h.083v-.249h-.083Zm.166-56.709h.083v-.083H315.8Zm0,9.452h.415v-.5A.538.538,0,0,0,315.8,314.968Zm0,15.5h.083v-.166H315.8Zm.332-35.236h.083v-.249h-.083Zm0,49.082h.083v-.083h-.083Zm.829,12.436c.166,0,.58-.249.58-.58a3.919,3.919,0,0,0-.58-.995c-.332,0-.083.083-.332.5-.083.083-.5.332-.5.5C316.129,356.174,316.792,356.754,316.958,356.754Zm-.415-45.185h.083a3.305,3.305,0,0,1,.332-.249v-1.492c.166,0,.166-.58.166-.58-.746,0-.829.829-.829,1.492C316.295,310.74,316.378,311.569,316.543,311.569Zm-.249,11.607h.083v-.083h-.083Zm0,26.779h.083v-.083h-.083Zm.249-52.4h.083v-.083h-.083Zm.166,27.691h.083v-.166h-.083Zm0,32.334h.58v-.332C317.041,357.168,316.709,357.251,316.709,357.583Zm.249-56.378h.415c0-.249,0-.746-.332-.746h-.083Zm0,5.389c0,.332.332.332.415.332a11.555,11.555,0,0,0,1.907-2.985c0-.249,0-.5-.166-.5-.083,0-.995,1.244-1.409,1.244-.083,0-.083-.083-.332-.083h-.166c0,.083-.083.58-.083.58l-.083.249-.083,1.161Zm0,16.582h.58v-.083h-.58Zm.166,6.633h.166v-.083h-.166Zm.415,14.592c0-.332-.083-.829-.415-.829C317.124,343.986,317.207,344.4,317.538,344.4Zm-.083-24.872h.332V319.2h-.332Zm.995-23.131c.415,0,1.327-.995,1.492-1.244V294.9c0-1.078-1.244-2.321-1.244-3.316,0-.332.083-.332.083-.746,0-.332-.166-.332-.166-.746h-.332c-.415,0-.332.249-.746.249v.995l.083.166c0,.083.083.829.083.995l.995,1.244v.166c0,.249-.083.5-.415.5s-.332-.5-.58-.5v.995a.616.616,0,0,1,.5.5c0,.249-.332.332-.332.746A.753.753,0,0,0,318.45,296.4Zm-.829,35.651h.083v-.332h-.083Zm0,4.145a.655.655,0,0,0,.415-.5h-.415Zm.746,29.515v-.332h-.58C317.7,365.625,318.119,365.708,318.367,365.708Zm-.5-62.43h.083V303.2h-.083Zm0,60.606h.332V363.8h-.332Zm.166-51.071h.083v-.083h-.083Zm1.409,3.731V315.8c-.166,0-.166.083-.5.083-.166,0-.58,0-.332-.746h-.083c-.083.083-.415.5-.5.58C318.036,316.212,319.279,316.543,319.445,316.543Zm-1.409,39.63h.332v-.083h-.332Zm0,6.384a.538.538,0,0,0,.415-.5C318.2,361.977,318.036,362.226,318.036,362.557Zm.166-8.042h.415v-.332H318.2Zm.663-1.741v-.5h-.415C318.45,352.443,318.616,352.774,318.865,352.774Zm-.332-30.759h.746v-.332c-.166,0-.415.249-.746.249Zm.083,17.411c.415,0,.5-.332.5-.746C318.782,338.68,318.616,339.012,318.616,339.426Zm.166-50.574h.083v-.166h-.083Zm0,25.619h.083v-.083h-.083Zm0,17.825h.083v-.332h-.083Zm0,10.364h.083v-.083h-.083Zm.166-41.04h.083v-.083h-.083Zm0,65.083h.415c0-.249-.166-.5-.332-.5h-.083Zm.249-60.689h.083v-.083H319.2Zm.746,58.2c0-.829-.083-1.078-.829-1.078C319.2,363.469,319.694,364.216,319.943,364.216Zm-.58-72.876h.083v-.083h-.083Zm0,29.515h.083v-.083h-.083Zm0,21.8h.58v-.5C319.777,342.245,319.362,342.245,319.362,342.659Zm0,5.887h.415v-.083h-.415Zm0,2.487h.083v-.083h-.083Zm0,18.571h.415c0-.249-.083-.5-.332-.5h-.083Zm.58-66.078a.567.567,0,0,0,.58-.58.7.7,0,0,0-.58-.58h-.083c0,.332-.166.746-.166.995C319.694,303.527,319.86,303.527,319.943,303.527Zm-.249,25.95c.083,0,.332-.332.332-.5h-.332Zm.58,33.495h.829V361.48a12.649,12.649,0,0,1-.912-1.327h-.166c-.083,0-.332,0-.332.249v.995c0,.58.912.083.912.829C320.606,362.64,320.274,362.64,320.274,362.972Zm-.415-4.56h.332v-.083h-.332Zm.249-56.792h.083v-.58h-.083Zm0,39.63h.083v-.332h-.083Zm.166-9.369h.083V331.8h-.083Zm.415,33.329c.166,0,.415-.083.415-.332,0-.5-.746-.332-.829-.332C320.274,364.63,320.44,365.211,320.689,365.211Zm-.415,3.731h.083v-.58h-.083Zm.166-41.205h.083v-.083h-.083Zm0,9.2h.415v-.5C320.689,336.441,320.44,336.856,320.44,336.939Zm.249-38.552a1.431,1.431,0,0,1,.332.249h.083c0-.083.166-.249.166-.249v-.995c0-.249-.415-.332-.58-.332Zm0,34.407h.166v-.083h-.166Zm0,18.986h.58v-.332A3.6,3.6,0,0,0,320.689,351.779Zm0,20.313c.5,0,.58-.332.58-.829C321.02,371.263,320.689,371.512,320.689,372.092Zm.166-37.889h.912c0-.249-.332-.332-.5-.332C321.186,333.788,320.855,333.954,320.855,334.2Zm.415,33.329v-.5h-.415C320.855,367.117,321.1,367.532,321.269,367.532Zm-.249-18.074h.083c.083-.083.415-.249.415-.332,0-.249-.166-.332-.415-.332h-.083Zm.166-43.444h.083v-.083h-.083ZM321.6,358c-.083.083-.415.5-.415.5v1.244c0,.58,1.327.829,1.741.829,0-.995-1.327-.5-1.327-1.244a.642.642,0,0,1,.083-.249v-1.244Zm-.332-.746a.762.762,0,0,0,.829-.746C321.6,356.505,321.269,356.754,321.269,357.251Zm.083-1.575h.083v-.083h-.083Zm.249,8.705h.083V364.3H321.6Zm0,4.394h.415c0-.249-.083-.58-.332-.58H321.6Zm.166-72.793h.083V295.9h-.083Zm0,16.83h.083v-.083h-.083Zm.332,8.705h.083v-.746H322.1Zm0,5.389h.083v-.083H322.1Zm0,13.348c.58,0,.5-.249,1.244-.332v-.083c0-.332-.166-.746-.415-.746C322.513,339.012,322.1,339.758,322.1,340.255Zm.58,25.867c0-.249-.083-.746-.415-.746-.083,0-.166.083-.166.249C322.1,365.957,322.513,366.122,322.679,366.122Zm.249-2.9c.332,0,.415-.249.415-.58h-.912C322.43,362.972,322.513,363.221,322.927,363.221Zm-.415-46.429h.58c0-.249-.332-.332-.415-.332h-.166Zm0,9.783h.083v-.166h-.083Zm0,15.338h.332v-.746h-.332Zm.166,5.886h.083c.415,0,.415-.746.746-.829v-.995c-.415-.083-.083-.746-.58-.746h-.166c0,.746-.166.746-.166,1.244C322.513,346.971,322.679,347.054,322.679,347.8Zm0-18.986h.332v-.083h-.332Zm0,7.379h.332v-.5h-.332Zm0,20.147c.166,0,.332-.5.332-.829C322.679,355.51,322.679,356.008,322.679,356.339Zm.249,14.177h.083v-.332h-.083Zm.829-44.687c0-.5-.166-.746-.58-.746A.62.62,0,0,0,323.756,325.829Zm-.332-25.287h.829c0-.332-.415-.58-.746-.58h-.083Zm0,23.048h.083v-.166h-.083Zm.415-18.074h.829c.083-.746,1.327,0,1.327-1.244,0-.746-.912-1.741-1.078-2.736h-.829c0,.5.332.995.332,1.327v.083a2.564,2.564,0,0,0-.746,1.99C323.591,305.1,323.591,305.517,323.839,305.517Zm-.249,29.267h.332v-.5h-.332Zm.58,33.163c.166,0,.166-.249.166-.332a1.98,1.98,0,0,0-.166-.746h-.5C323.591,366.952,323.839,367.946,324.171,367.946Zm.5-60.523c0-.166,0-1.244-.415-1.244-.166,0-.415.5-.415.746C323.839,307.423,324.337,307.423,324.668,307.423Zm-.829,2.9h.083v-.166h-.083Zm0,22.883c0,.249.415.249.5.249v-1.492h-.5Zm0,19.566v.995s.166.249.332.249v-1.575C324.005,352.443,323.839,352.774,323.839,352.774Zm.166-57.953h.083v-.166h-.083Zm.663,36.231v-1.575h-.58C324.005,329.56,324.337,331.052,324.668,331.052Zm-.663,12.934h.083v-.58h-.083Zm.912-20.147h.166c.332,0,.332-.249.332-.58,0,0,.083-.332-.083-.332v-.995a10.57,10.57,0,0,0,.58-.995c0-.083-.083-.083-.083-.249v-.166c0-.083.415-.5.415-.5h.083c.083,0,.083.083.166.083V319.2c-.332,0-.415-.5-.746-.5a3.567,3.567,0,0,0-1.078,1.99c0,.249.5.746.5.995v.083l-.995,1.244Zm.249,38.552a.846.846,0,0,0-.912-.829A.974.974,0,0,0,325.166,362.392Zm-.083-36.314v-.995a.44.44,0,0,0-.5.5C324.5,326.078,324.751,326.078,325.083,326.078Zm-.58,23.214a3.156,3.156,0,0,1,.415.5H325s.746-.58.746-.746c0-.332-.332-.746-.5-.746h-.083l-.58.746v.083l-.083.166Zm.249-56.543h.746v-.083h-.746Zm0,25.038h.332v-.332h-.332Zm0,16.416h.332v-.083h-.332Zm0,1.99h.083v-.746h-.083Zm0,11.027h.5l.746-.746v-.5c-.5,0-.58.332-1.244.332Zm.58,17.411c.166,0,.415-.083.415-.5a.293.293,0,0,0-.332-.332h-.746C324.751,363.967,325.083,364.63,325.332,364.63Zm.249-35.568a.8.8,0,0,0-.746-.746A.7.7,0,0,0,325.58,329.063Zm-.663-13.514H325v-.5h-.083Zm0,21.39h.332a5.283,5.283,0,0,0-.166-.58H325l-.083.58Zm0,1.327H325v-.083h-.083Zm0,18.986H325v-.083h-.083Zm.249-44.439h.083v-.083h-.083Zm0,41.62c.332,0,.746-.58.746-1.078C325.249,353.272,325.166,353.686,325.166,354.432Zm0,11.939a.538.538,0,0,0,.415-.5h-.415Zm.166-69.311h.083v-.083h-.083Zm0,70.306h.083v-.332h-.083Zm.995-39.216v-.5a1.853,1.853,0,0,0-.829-.249C325.58,327.985,325.829,328.151,326.327,328.151Zm-.58-19.649h.166l.58-.829v-.249c0-.166,0-.249-.083-.249v-1.244h-.829v1.244a.6.6,0,0,1,.332.58C325.995,308,325.746,308,325.746,308.5Zm-.083,5.721h.332v-.5h-.332Zm0,42.781h.332v-.083h-.332Zm.58-20.81c0-.332,0-1.078-.5-1.078C325.746,335.446,325.995,336.193,326.244,336.193Zm-.5,33h.415a1.494,1.494,0,0,1,.746-1.327v-.332C326.575,367.532,325.746,368.941,325.746,369.19Zm.249-24.872h.746c0-.083-.166-.332-.332-.332A.334.334,0,0,0,325.995,344.318Zm0,17.162a.882.882,0,0,0,.746-.829C326.244,360.651,325.995,360.9,325.995,361.48Zm.083,1.244h.083v-.083h-.083Zm.166-69.394c.166,0,.58-.083.58-.332a.3.3,0,0,0-.332-.332A5.708,5.708,0,0,0,326.244,293.329Zm.249,2.156h.083v-.166h-.083Zm.166,38.055h.166v-.249h-.166Zm.332-29.847c.166,0,.332-.5.332-.746h-.332Zm0,42.532h.5v-.746h-.5Zm.663-44.853v-1.492h-.5v1.244A1.4,1.4,0,0,0,327.653,301.371Zm-.5,41.288h.083v-.083h-.083Zm0,7.047h.083v-.083h-.083Zm0,1.658h.083v-.083h-.083Zm.249-61.6h.083c.083-.58.332-.746.332-1.244H327.4Zm0,24.955h.083v-.166H327.4Zm0,7.3h.5v-.332h-.5Zm0,3.814h.083v-.249H327.4Zm0,32.583h.829c0-.249-.5-.332-.58-.332h-.166l-.083.332Zm.912,14.343c.58,0,.415-1.492.746-1.575v-1.824h-.083l-.829,1.078c-.083.332-.5.829-.5,1.078C327.57,371.677,328.233,372.755,328.316,372.755Zm-.5-29.267h.083v-.083h-.083Zm0,3.98h.415v-.332h-.415Zm.58,3.068v-1.078c-.332,0-.58.083-.58.58C327.819,350.2,328.233,350.536,328.4,350.536Zm.166,15.587v-.746h-.58C327.985,365.625,328.316,366.122,328.565,366.122Zm-.332-61.767h.415v-.5A.464.464,0,0,0,328.233,304.356Zm.083,33.412h.083v-.5h-.083Zm1.078,26.116c.332,0,.332-.5.332-.58,0-.332-.083-.58-.415-.58-.166,0-.415.083-.415.5C328.9,363.387,329.145,363.884,329.394,363.884Zm.829.746h.415v-.083h-.415Zm.58,5.8c0-.58,0-1.078-.58-1.078C330.223,369.77,330.389,370.434,330.8,370.434Zm-.083-2.9v.332c.5,0,1.492-.829,1.492-1.327C331.964,366.454,330.721,366.7,330.721,367.532Zm.58-53.89h.083v-.332H331.3Zm.249,50.242h.912a.529.529,0,0,0-.5-.5A.457.457,0,0,0,331.55,363.884Zm.083,8.622h.332v-.083h-.332Zm.415-62.181h.58c0-.249-.332-.332-.415-.332h-.166Zm.249-4.809h.083v-.083H332.3Zm0,57.041h.332v-.5H332.3Z" fill="#305268"/>
      <path id="k" d="M405.089,371.677l.58-.746-.58-.746v-.166c0-.083,0-.332.083-.332V368.2c.166.083.166-.249.166-.332,0-.332-.083-.332-.083-.746,0-.166,0-.332.332-.332H406c0-.58-.746-1.244-.746-1.99,0-.829,1.907-2.487,2.4-2.487l.083-.166c0-.332-.415-.083-.415-.5,0-.5.332-.5.332-.829a.973.973,0,0,0-.829-.746c-.166,0-.746.995-.746,1.244l-.829.995h-.083c-.083,0-.166-.249-.166-.249v-.829l.083-.166v-1.244c-.083,0-.083-.083-.083-.332,0-.083,0-.249.083-.249v-1.99a.627.627,0,0,1-.083-.332c0-.332.083-.332.083-.58a1.232,1.232,0,0,0-.083-.5v-1.99l.083-.083v-.995c-.166,0-.083-.083-.083-.249,0-.58.5-.332.5-.829,0-.083,0-.249-.166-.249v-1.492c-.166,0-.332-1.244-.332-1.492,0-.746.746-1.327.746-1.824,0-.332-.746-1.244-.746-1.575,0-.5.5-.829.5-1.492,0-.5-.332-1.078-.332-1.741,0,0-.083-.332.083-.332v-1.492l-.083-.083v-.995l.166-.249h.746c.332.5.083.166.166.166,0-.332.332-.829-.415-.829-.166,0-.166.083-.332.083s-.415,0-.415-.249v-1.492l.332-.332v-1.99c-.166-.083-.083-.5-.332-.746v-1.078l.083-.083v-1.492l-.083-.083v-1.741c.415-.083.332-.5.332-.829,0-.58-.332-.58-.332-1.078,0-.166-.083-.58.083-.5v-1.741c.083-.083.415-.332.415-.332v-.166l-.829-.995.58-.746v-.249c0-.58-.5-1.078-.5-1.824,0-.332.415-.58.746-.58v-.083c0-.5-.5-.829-.5-1.327,0-.332.332-.5.332-.829,0-.58-.5-1.078-.5-1.741,0-.332.083-1.327.332-1.327v-1.907l-.083-.083v-1.244c.083,0,.083-.332.083-.332a1.232,1.232,0,0,0-.083-.5v-1.244c.083,0,.083-.083.083-.249a.5.5,0,0,0-.083-.332v-1.492c.332-.083.332-.332.332-.746,0-.249-.083-1.078-.332-1.244v-1.741h.5s.083-.083,0-.249c-.083,0-.5-.083-.5-.332v-.829c0-.5.746-.249.746-.746s-.746.083-.746-.746v-1.244c.332-.083.332-.249.332-.5,0-.5-.332-.5-.332-1.078v-.5c0-.083.5-.332.5-.5,0-.332-.746-1.327-.746-1.741,0-.249.083-.249.083-.5,0-.083,0-.249-.083-.249v-1.741c.332-.083.332-.332.332-.746,0-.332-.332-.5-.332-.746,0-.083,0-.249.083-.249v-.995c-.083,0-.083-.166-.083-.249,0-.249.083-.249.083-.5,0-.332-.083-.332-.083-.746v-.249a1.3,1.3,0,0,1,1.658-.995.081.081,0,0,1,.083-.083c.166,0,.5.332.829.332a.627.627,0,0,0,.332-.083h.746c.083.083.166.083.332.083.083,0,.166,0,.166-.083h1.409l.083.249H411.8c.332.5,2.156,1.575,2.156,2.073v.5c-.083,0,0,0-.166-.249h0c0,2.239,2.653,2.736,2.736,4.975l.912.995c.166.083.5.249.5.58a.5.5,0,0,1-.083.332v.829c0,.5.746.249.746.746v.829l-.746.995v.249c.5,0,.5-.249.912-.249.332,0,.332.249.332.58,0,0,0,.332-.083.332v1.244c.332.083.332.5.332.829v.5c-.166,0-.083.332-.083.332,0,.332.083.332.083.58a5.443,5.443,0,0,1-1.078,2.985h-.166a6.429,6.429,0,0,0-.746-.083c0,.746,1.244.829.995,2.239.829,0,.995,1.327.995,1.99,0,.166,0,.5-.166.5v1.244c-.083,0-.083,0-.083.083,0,.249.083.249.083.332,0,.5-.415.5-.415.829s.415.332.415.995v.5c-.166.166-.083.332-.083.5,0,.249.083.249.083.5s-.083.249-.083.5c0,.083-.083.332.083.5v1.99c-.415.166-.415.5-.415.829,0,.58.415.58.415.995,0,.249,0,.332-.166.332v1.244c-.166,0-.166.083-.166.249,0,.332.415.5.415.746s-.415.249-.415.58c0,.5.415,1.244.415,1.741s-.58.58-.58.746v.083c.332,0,.829.083.829.58,0,.083,0,.249-.083.249v.995c.083,0,.083.083.083.332,0,.332-.332.58-.332.995,0,.249.083.249.083.5,0,.332-.415.5-.415.746a.735.735,0,0,0,.415.332v1.99a.552.552,0,0,1-.58.58c-.166,0-.166-.166-.332-.166V335.7h.332v-.746a.826.826,0,0,1,.332.083c.083,0,.415.332.5.5v.083c0,.166-.083.166-.083.332,0,.332.083.332.083.58a1.232,1.232,0,0,1-.083.5v1.492l.083.083v.332c0,.58-.332.58-.332,1.244,0,.5.332.746.332,1.244,0,.166,0,.249-.083.249v1.741l.083.166v.995a3.235,3.235,0,0,0-.58,1.327c0,.5.415.746.415,1.244,0,.58-.58.083-.829.58a.835.835,0,0,0,.083.249h.746c0,.332.166.5.166.746s0,.332-.083.332v.995l.083.083v.332c0,.58-.332.58-.332,1.078,0,.332.332.332.332.746,0,.083,0,.332-.083.332v.995c.083,0,.083.083.083.249,0,.5-.332,1.244-.332,1.741,0,.083-.083.5.083.5v1.741l.166.083v1.078c-.332.249-.332.249-.332.58,0,.083-.083.249.083.332V361.4l-.58.58v.083c0,.332.332.746.332.995s-.083.249-.083.332c0,.249.166.829.415.829v.995c-.166,0-.415.58-.415.829,0,.083,0,.249.083.249v.995a.081.081,0,0,0-.083.083v.083l.58.58v.083a10.188,10.188,0,0,0-.166,1.078h-.829a.081.081,0,0,0-.083-.083c-.829,0,.746.829-.746.5v.083c.415.083.415.249.829.249.166,0,.166-.083.415-.083a.567.567,0,0,1,.58.58c0,.58-.746.746-.912,1.078h-.746c-.083-.083-.166-.083-.332-.083s-.166.083-.415.083a.627.627,0,0,1-.332-.083H415.7c0,.083-.083.083-.166.083-.332,0-.332-.332-.746-.332-.166,0-.332.332-.5.332s-.166-.083-.415-.083c-.332,0-.332.083-.746.083-.166,0-.166-.083-.5-.083a.627.627,0,0,0-.332.083h-1.409l-.083-.083h-.746l-.083.083h-.829c-.166,0-.166-.332-.166-.5,0-.332.332-.083.332-.5h-.58c0,.5-.332.58-.332.995h-.332c-.166,0-.166-.083-.5-.083s-.332.332-.58.332c-.083,0-.083-.083-.332-.083-.083,0-.083.083-.332.083-.332-.332-1.327-.829-1.327-1.492C405.089,371.76,405.089,371.677,405.089,371.677Zm.829-74.037H406v-.249h-.083Zm0,33.909h.332v-.083h-.332Zm0,23.878h.58v-.746C406.084,354.681,405.918,354.93,405.918,355.427Zm0,15.089H406v-.083h-.083Zm.58-54.222v-.5h-.415C406.084,315.963,406.333,316.295,406.5,316.295Zm-.415,8.54h.083V324.5h-.083Zm0,16.582h.083v-.083h-.083Zm0,5.8h.083v-.166h-.083Zm0,21.224h.415v-.5A.538.538,0,0,0,406.084,368.444Zm0,3.98h.083v-.5h-.083Zm.829-35.236c.58,0,.746-.829.746-1.327-.166,0-1.244,0-1.244.746C406.416,336.773,406.665,337.188,406.913,337.188Zm.415-19.9a.994.994,0,0,0-.829-.995C406.5,317.041,406.665,317.29,407.328,317.29Zm-.829,41.869h.58l1.078-1.327c0-.249-.083-.249-.083-.5v-.083l.58-.829h.166c.332,0,.332.746.5.746.415,0,1.244-2.073,1.244-2.57h-.995C408.737,356.008,406.5,357,406.5,359.158Zm.083-53.061h.083v-.58h-.083Zm0,33.163h.083v-.746h-.083Zm0,9.286c.332,0,1.244-.249,1.244-.746-.746,0-.58.249-1.244.249Zm.249-54.8h.083v-.249h-.083Zm0,27.774h.083v-.5h-.083ZM407,293.992h.332v-.083H407Zm0,16.582h.083v-.332H407Zm0,16.5h.083v-.249H407Zm0,6.881h.332v-.083H407Zm0,19.069h.083v-.083H407Zm.5-64.254v-.746h-.332C407.245,288.272,407.328,288.769,407.494,288.769Zm-.249,23.463h.5v-.083h-.5Zm0,31.008h.083v-.332h-.083Zm.166,25.453a.307.307,0,0,1,.166.249h.083a3.25,3.25,0,0,0,.332-.746.548.548,0,0,0-.58-.5Zm.166-74.452h.083v-.332h-.083Zm0,28.769h.083v-.083h-.083Zm.332,16.25h.083v-.166h-.083Zm.249-48.5h.083v-.083h-.083Zm0,45.268h.332v-.083h-.332Zm.083-17.079c.166,0,.912-.249.912-.5C408.9,318.45,408.24,318.533,408.24,318.948Zm.912-24.955a.8.8,0,0,0-.746-.746A.7.7,0,0,0,409.152,293.992Zm-.746,66.741h.415v-.5A.655.655,0,0,0,408.406,360.733Zm.415-58.367c0-.58.166-.746.166-1.244a.727.727,0,0,0-.5.58Zm.415,9.12c.083,0,.5,0,.5-.332v-1.078c-.58,0-.58.746-1.244.58v.083A.794.794,0,0,0,409.235,311.486Zm-.663,32.749h.332V343.9h-.332Zm0,9.534h.332v-.083h-.332Zm1.078,14.923h.083c0-.746.415-1.078.415-1.741h-.829c-.083.5-.829,0-.829.829,0,.249,0,.58.415.58.083,0,.083-.249.332-.249C409.483,368.2,409.483,368.693,409.649,368.693Zm-.912-77.685h.083v-.083h-.083Zm0,32h.083v-.332h-.083Zm.415,21.473h.083v-.332h-.083Zm.166-47.672h.166v-.166h-.166Zm0,42.2h.415v-.249h-.415Zm0,30.925h.166V369.6h-.166Zm.829-74.369v-.5h-.58C409.566,295.485,409.981,295.568,410.147,295.568Zm-.5-2.736h.083v-.166h-.083Zm0,5.555h.083v-.166h-.083Zm.166,41.869h.332v-.332h-.332Zm0,32.168h.332v-.5h-.332Zm.166-46.18h.58v-.415C410.478,325.829,409.981,326.078,409.981,326.244Zm.083-14.26h.332V311.9h-.332Zm0,7.71h.332v-.166h-.332Zm.166-11.441h.332v-.083h-.332Zm.415,37.309h1.078c0-.58-.415-.249-.415-.746,0-.332.083-.332.083-.746h-1.244v1.244C410.4,345.313,410.644,345.313,410.644,345.561Zm.415-39.05c0-.5-.166-1.244-.58-1.244C410.478,306.014,410.478,306.512,411.059,306.512Zm-.415,42.781h.083v-.083h-.083Zm0,8.457h.332v-.083h-.332Zm0,7.213h.083l.746-.829v-.166A.994.994,0,0,0,410.644,364.962Zm.249-32.417h.415v-.332h-.415Zm0,4.892h.58V337.1h-.58Zm.415,14.26c.083,0,.415,0,.415-.249v-.995a.966.966,0,0,0-.829.829A.444.444,0,0,0,411.307,351.7Zm-.415,15.918h.415v-.332h-.415Zm.58-58.865c.166,0,.58-.166.58-.5,0-.083,0-.332-.166-.332C411.639,307.838,411.473,308.75,411.473,308.75Zm.58,12.022v-.5h-.58C411.473,320.606,411.888,320.772,412.054,320.772Zm-.5,3.068c.166,0,.415-.746.415-.995h-.415Zm0,19.152h.083v-.083h-.083Zm.5-42.7v-.332h-.415C411.639,300.045,411.971,300.293,412.054,300.293Zm-.249,15.67h.083v-.083H411.8Zm0,52.73h.332v-.5H411.8Zm.166-32.5c.083,0,.332-.58.332-.746h-.332Zm.249-43.858a.538.538,0,0,0,.415-.5A.464.464,0,0,0,412.219,292.334Zm.58,14.177a.518.518,0,0,0-.58-.58A.567.567,0,0,0,412.8,306.512Zm-.58,43.444a1.549,1.549,0,0,0,1.409-1.575c0-.5-.166-.5-.166-1.244H413.3c-.332,0-.415.166-.829.249v1.492l-.166.083-.083.995Zm.249,3.316c.166,0,.5-1.327.5-1.492h-.083a6.1,6.1,0,0,1-.746.995C412.219,353.023,412.3,353.272,412.468,353.272Zm-.249,12.353c.166,0,.415-.332.415-.5h-.415Zm.166-28.437h.415v-.5h-.415Zm.5,24.541c.166,0,.332-.249.332-.5a.888.888,0,0,0-.829-.829A3.409,3.409,0,0,0,412.883,361.728Zm-.5,5.14h.083v-.083h-.083Zm.995-62.6v-.332h-.829C412.634,304.273,413.214,304.273,413.38,304.273Zm-.663,21.225h.083V325h-.083Zm.5-18.489v-.5H412.8A.464.464,0,0,0,413.214,307.009Zm.5,2.57c0-.332-.58-.5-.912-.5C412.8,309.579,413.38,309.579,413.712,309.579Zm-.829,4.477h.083v-.083h-.083Zm0,8.954h.5v-.083h-.5Zm0,18.406h.083v-.746h-.083Zm.746-23.131c.166,0,.5,0,.5-.332h-1.078C412.966,318.284,413.3,318.284,413.629,318.284Zm-.663,1.658h.415V319.2C413.131,319.2,412.966,319.694,412.966,319.943Zm1.078,49.247c.166,0,.332-.249.332-.5,0-.58-.746-.249-.746-.995h-.58A3.643,3.643,0,0,0,414.043,369.19Zm-.912-77.685h.083v-.166h-.083Zm.5,9.783a.348.348,0,0,0,.332-.332h-.746A.379.379,0,0,0,413.629,301.288Zm-.332,31.92h.58a.536.536,0,0,0-.415-.5H413.3Zm0,5.555a.538.538,0,0,0,.415-.5H413.3Zm.249-51.9c.5,0,.912.332,1.327.332.5,0,.746-.58,1.078-.58.415,0,.995.58,1.327.58s.332-.332.746-.332c.5,0,.829.083,1.078.829v.166c0,.5-.415.995-.415,1.492s.415.5.415.829c0,.249-.083.249-.083.58,0,.083,0,.249.083.249V292c-.332,0-.746,1.824-.746,2.073h-.083c-.415,0-3.9-6.052-4.809-6.964v-.249Zm0,66.161h.5v-.5A.478.478,0,0,0,413.546,353.023Zm.5-53.476V298.8h-.332C413.712,299.05,413.795,299.547,414.043,299.547Zm-.332,27.028c.166,0,.58-.166.58-.332,0-.332-.332-.332-.415-.332h-.166Zm0,10.861h.083v-.083h-.083Zm0,18.24h.332v-.58h-.332Zm0,14.26h.083v-.166h-.083Zm.166-18.489h.415v-.083h-.415Zm.249-13.017h.415v-.166h-.415Zm0,4.56h.166v-.5h-.166Zm0,3.068h.58c0-.249-.083-.58-.415-.58h-.166Zm.166-50.823h.415V294.9C414.541,294.821,414.292,295.07,414.292,295.236Zm1.161,19.235c0-.58-.58-.58-.5-1.327h-.166c-.332,0-.332.332-.332.746C414.458,314.222,415.121,314.471,415.453,314.471Zm-.249,46.512c0-.5-.166-.746-.746-.746C414.541,360.733,414.707,360.982,415.2,360.982Zm-.58-31.505h.332v-.083h-.332Zm0,20.976c.166,0,.415-.5.415-.746h-.415Zm.166-39.381h.083v-.083h-.083Zm.249-13.68a.538.538,0,0,0,.415-.5A.464.464,0,0,0,415.038,297.392Zm.166,18.571h.083v-.083H415.2Zm0,6.8h.58c0-.249-.083-.58-.415-.58H415.2Zm0,1.824h.083v-.166H415.2Zm0,9.617h.332v-.332H415.2Zm0,17.742h.083v-.083H415.2Zm.249-43.444h.083l.746-.746v-.746C415.619,307.009,415.453,307.838,415.453,308.5Zm.415,2.321c.166,0,.415-.083.415-.332,0-.332-.166-.5-.415-.5-.166,0-.415.083-.415.5C415.453,310.74,415.619,310.823,415.867,310.823Zm-.415,5.389h.083v-.083h-.083Zm.166,27.277h.332c.58,0-.083-.083.415-.58.083-.249,1.658-.58,1.658-.995V340.67c-.829,0-.829-.249-1.409-.249,0,.249.083.249.083.5,0,.332-.995,1.078-1.244,1.327v.332C415.453,343.157,415.619,342.991,415.619,343.489Zm-.166,2.57h.083v-.083h-.083Zm0,20.147h.083v-.58h-.083Zm.166-11.276.746.746h.415V354.6l.083-.083c.415.249-.5.249.5.249,0-.249-.166-.995-.415-.995-.332,0-1.327.58-1.327,1.078Zm0,1.244h.166v-.083h-.166Zm.829-55.051a.835.835,0,0,1-.083.249h-.5a1.459,1.459,0,0,0,.083.5c.083.249.415,1.244.829,1.244h.083c0-.58.166-.746.166-1.244,0-.332-.332-.083-.332-.5,0-.249.083-.249.083-.332,0-.332-.415-.332-.58-.332C416.282,301.869,416.282,300.625,416.448,301.122Zm-.332,23.463h.332v-.166h-.332Zm0,23.878c0,.332.332.332.5.332s.415-.083.415-.5c0-.332-.332-.332-.332-.746,0-.083.083-.083.083-.249,0-.332-.58-.332-.746-.332l.083,1.492Zm.166-26.614a7.748,7.748,0,0,0,1.492-1.327c0-.249-.083-.5-.332-.5C416.779,320.026,416.282,321.02,416.282,321.85Zm.332,44.522v-.5H416.2C416.282,366.122,416.448,366.371,416.614,366.371Zm-.249-27.36a1,1,0,0,0,.995-.995h-.415l-.58.746Zm.58-28.189c.083,0,.415-.083.415-.332h-.912C416.448,310.74,416.779,310.823,416.945,310.823Zm-.415,6.467h1.244c0-.5-.746-.746-.912-.746h-.332Zm0,17.162h.083v-.332h-.083Zm.415,11.607h.829c.083-.249.415,0,.415-.5,0-.083-.083-.083-.083-.332,0-.332.58-.746.58-1.078h-1.244c-.083.5-.746,1.327-.746,1.741A1.026,1.026,0,0,1,416.945,346.059Zm0-57.455h.332v-.332h-.332Zm0,30.1c.166,0,.58-.166.58-.5h-.58Zm.249,7.545h.415v-.166h-.415Zm.58,37.972v-.746h-.415C417.36,363.718,417.443,364.216,417.774,364.216Zm-.332-31.256c.166,0,.332-.5.332-.746h-.332Zm0,.995h.332v-.332h-.332Zm0,24.707h.912v-.5c-.415,0-.5.249-.912.249Zm.249-56.792h.083v-.083h-.083Zm0,59.114h.332V360.9h-.332Zm0,4.974h.083v-.083h-.083Zm.166-76.607h.332v-.083h-.332Zm0,29.681h.083v-.083h-.083Zm.249,5.555h.083v-.166h-.083Zm.166,15.67h.083v-.083h-.083Zm.5-45.185v.332h-.332v-.332Zm-.249,47.921h.083v-.083h-.083Zm16.747,29.515c-.166,0-.083.58-.415.58a3.3,3.3,0,0,0-.332-.249v-1.244c-.415,0-.5-.249-.829-.249,0,.5.083.5.083.829,0,.249,0,.58-.166.58h-.995c0-.249-.332-.083-.415-.083-.415,0-.912.332-1.327.332-.746,0-1.492-2.239-1.409-2.736-.166-.249-.332-.332-.332-.58s.083-.249.083-.332c0-.332-.5-.249-.5-.58,0-.249.332-.249.332-.58,0-.5-.5-.166-.5-.58v-.829c.083-.083.083-.083.083-.249a13.417,13.417,0,0,0-.829-1.492V363.8l-.332-.083v-1.244c-.332-.083-.332-.249-.332-.5,0-.083-.083-.249.083-.332v-.5c0-.5-.332-.5-.332-.829,0-.249.083-.249.083-.332a3.985,3.985,0,0,0-.995-2.239v-1.99c-.166,0-.58-1.327-.58-1.575,0-.332.083-.332.083-.746v-.249c-.083,0-.58-.249-.58-.5v-1.078l-.166-.083v-1.244c-.58.083-.083-1.99-.746-1.99V346.8c-.166,0-.332-.58-.332-.995,0-.332.083-.249.083-.58,0-.5-.829-.083-.829-.829,0-.249.083-.249.083-.58,0-.249-.166-1.741-.58-1.741v-2.487c-.166,0-.332-.829-.332-.995,0-.5.332-.5.332-.995v-.5a.865.865,0,0,1-.995-.829c0-.249.083-.249.083-.5s-.083-.249-.083-.5c0-.083.415-1.078.58-1.078v-1.741c.332-.083.166-.746.5-.746.083,0,.166.166.166.166,0-.746-.166-.746-.166-1.244,0-.995.995-3.98,1.658-4.311v-.995a.081.081,0,0,1-.083-.083v-.166s.332-.249.415-.332v-1.492a3.154,3.154,0,0,0,.415-.5h.083l.829.829h.166c.332,0,.415-.249.995-.249v-.083l-.912-.995c-.5,0-.912-.166-.912-.746,0-.829.912-1.824.912-2.819v-.332c-.083-.166-.083-.166-.083-.249l.995-1.244v-.249c0-.249-.083-.249-.083-.58,0,0-.083-.332.083-.5v-.829c-.166-.083-.083-.249-.083-.332,0-.332.166-.5.415-.5.415,0,.58.5.912.5,0-.332.083-1.078-.332-1.327v-1.99c.166-.083.58-.995.995-1.244a.307.307,0,0,0,.166-.249v-1.492l-.083-.083v-.829a.5.5,0,0,0,.083-.332c0-.083-.083-.083-.083-.332,0-.995,1.409-.5,1.492-1.244h.995c0-.083.083-.083.166-.083.332,0,.332.083.58.083.166,0,.166-.083.5-.083s.332.083.5.083c.332,0,.332-.083.58-.083.083,0,.166,0,.166.083h1.824a.257.257,0,0,1,.166-.083c.083,0,.083,0,.166.083h.746c.083-.083.166-.083.332-.083a.9.9,0,0,1,.746.5h1.658c0,.166.083.166.166.166.415,0,.58-.332.912-.332h.166l.5.58h.166c.083,0,.083-.083.332-.083s1.244.58,1.244.829a5.466,5.466,0,0,1-1.327,3.068v1.99c-.5.332-1.078,2.819-1.327,2.819v1.741c0,.332-.58.083-.58.332s.083.249.083.5c0,.5-.995,1.492-.995,1.575,0,.249.166.249.166.5,0,.332-.58.332-.58.58s.332.332.332.58-.166.995-.415.995h-.083l-.5-.58h-.166a.293.293,0,0,0-.332.083h-.332c-.58,0-.58-.249-1.327-.249v.746l.083.083c.166.746.912,1.575.829,2.239h.083a1.669,1.669,0,0,1,1.658-2.073c0,.829-.415.746-.415,1.327a.081.081,0,0,0,.083.083v.995l-.166.083v1.078c0,.083-.083.249-.166.249a3.11,3.11,0,0,1-.829.083v.083c0,.249.332.58.332.995,0,.249,0,.332-.332.5v1.244c-.5,0-.083.995-.58.995a.727.727,0,0,1-.5-.58c0-.5.415-.829.415-1.244-.415,0-1.244.249-1.244.746,0,.249.083.995.415.995v1.244c.166,0,.332,1.078.332,1.327,0,.332,0,.5-.332.58v1.244l-.166.166v2.239c.166,0,.332.995.332,1.327,0,.5-.332,1.078-.332,1.492.083,0,.5.083.5.083a3.3,3.3,0,0,0,.332.249v1.492c.415.166.415.332.415.746v.332c-.332-.083-.332.083-.332.249,0,.58.829.5.829.829v1.492c.746.249.166,1.824.829,1.99v1.741c.332.083.083.58.415.58v1.244c.332,0,1.078,2.487,1.078,2.819s-.166.332-.166.58c0,.829.829,1.824.829,2.819,0,.249-.083.249-.083.5.5.332.58.58.58,1.244l-.083.332a.5.5,0,0,0-.083.332v.249l.5.58v.083c0,.332-.083.332-.083.58v.083a2.056,2.056,0,0,1,.829,1.492c0,.249-.083.249-.083.5a6.43,6.43,0,0,1,.083.746c0,.249,0,.746-.5.332v.083c0,.332.083.332.083.58,0,.58-.829,1.327-.829,1.99a.37.37,0,0,0,.332.249l.58-.58h.912l.332.249v1.244c.332.083.829,1.492.829,1.741,0,.083,0,.083-.083.249a2.932,2.932,0,0,0-.083.5c0,.249,0,.746.5.829v1.327c0,.083.332.332.332.332v.083c0,.083-.083.332-.166.332-.166,0-.166-.083-.332-.083h-.166c0,.332-.083.829-.5.829-.332,0-.746-.58-.746-.58-.332,0-.083.58-.5.58a.081.081,0,0,1-.083-.083h-1.658c-.083.083-.083.083-.166.083a2.078,2.078,0,0,1-.58-.332h-2.073c-.083.332-.332.332-.58.332-.415,0-1.327-.083-1.078-.746Zm-12.6-38.3H423v-.332h-.332Zm.166,1.575c.083,0,.166.249.166.249h.829c0-.332.415-.746.415-1.244h-.995a2.593,2.593,0,0,0-.415.829Zm1.161-2.073h.332v-.415h-.332Zm.415-6.633a.538.538,0,0,0,.415-.5h-.415v.5Zm.332,7.379h0l.083-.166h-.083Zm.249-6.633c0,.332.415.5.58.5h.166c-.083-.829.415-.5.415-1.078,0-.249-.332-.249-.332-.5s.083-.249.083-.332v-.249l-.58-.58v-1.575c-.083,0-.415.249-.415.332v.995l.083.083v.829l-.083.083v1.492h.083Zm.415,9.617V337.1h-.415A.454.454,0,0,0,425.4,337.436Zm.166,3.98c0-.249-.083-.995-.415-.995C425.153,340.67,425.153,341.416,425.568,341.416Zm-.166,4.643h.415v-.5C425.568,345.561,425.4,345.976,425.4,346.059Zm.083-3.9h0l.083-.332h-.083Zm0,2.238a.594.594,0,0,0,.332-.5h-.332Zm.249,6.8h0l.083-.166h-.083Zm.332-30.593h.332v-.166h-.332Zm.663,11.193h.415V330.8C426.728,330.8,426.728,331.55,426.728,331.8Zm.249,7.959h.332v-.332h-.332Zm.166,17.908c.166,0,.995-.083.995-.58,0-.332-.166-.332-.415-.332h-.332C427.309,357.168,427.143,357,427.143,357.666Zm.083-10.446h0l.083-.166h-.083Zm0,3.731c.083,0,.332-.58.332-.746h-.332Zm.083-17.245h.58v-.5C427.723,333.208,427.309,333.291,427.309,333.705Zm2.073-10.7a.3.3,0,0,0,.332-.332v-.249c-.332,0-.746-.083-.746-.58,0-.249.083-.332.415-.332a6.4,6.4,0,0,0,.829.083c0-.746-.415-.995-.5-1.741H428.8c0,.249.083.249.083.58v.249c-.415.746-1.409.746-1.409,1.575,0,.083,0,.58.166.58h1.409C429.05,323.01,429.216,323.01,429.381,323.01Zm-1.99,6.964h0l.083-.332h-.083Zm.415-10.032c.083,0,.829.083.829-.332-.083-.083-.415-.5-.5-.58C427.889,318.948,427.806,319.943,427.806,319.943Zm.415,23.795c.166,0,.415-.083.415-.332h-.829C427.806,343.654,428.055,343.737,428.221,343.737Zm-.166-11.69h.829v-.5C428.635,331.55,428.055,331.55,428.055,332.047Zm0,17.742h0l.083-.083h-.083Zm4.063-30.344c0-.58-.083-.332-.332-.829-.083,0,0-.083,0-.083h.912v-.995c-.58-.083-.5-.332-1.244-.332,0,.249.166.249.166.5,0,.332-.166.5-.415.5a.567.567,0,0,1-.58-.58,1.2,1.2,0,0,0,.083-.5v-.332c-.5,0-.912-.746-.912-1.244l-1.244-1.575h-.166c0,.332.166.332.166.829,0,.249-.083.249-.083.5.083.083,1.824,2.736,1.824,2.819V319.2h.829c.083-.083.166-.083.332-.083C431.786,318.948,431.869,319.445,432.117,319.445Zm-3.565-1.409h0l.083-.332h-.083Zm.083,34.49c.332,0,.58-.58.58-.995a.37.37,0,0,0-.332-.249C428.718,351.282,428.635,352.443,428.635,352.526Zm.083-16.25h0l.083-.332h-.083Zm.166,1.409c.332,0,.58,0,.58-.5,0-.083,0-.5-.166-.5C428.884,336.69,428.884,337.519,428.884,337.685ZM430.708,342c0-.332-.58-2.073-.912-2.073a1.72,1.72,0,0,0-.829.5.409.409,0,0,0-.083.249h.995C429.879,341.416,429.962,342,430.708,342Zm-1.741-31.422a3.155,3.155,0,0,1,.415.5l.083.083v-1.244a3.155,3.155,0,0,1-.415-.5l-.083-.083Zm.166,52.066h0l.083-.746h-.083Zm.249-32.915h0l.083-.083h-.083Zm1.492,28.686a1.393,1.393,0,0,0,1.244-1.492v-.249l-.829-.995c0-.249.083-.249.083-.58,0-.58,0-.083-.332-.746-.166-.332-.083-1.492-.415-1.492v-.995c.166,0,.332-.58.332-.829,0-.746-.995-2.321-1.492-2.321,0,.829.746.829.746,1.575,0,.332-.083.332-.083.746,0,.249.083.249.083.5s-.166.829-.415.829v.995c.58.332.415,2.321,1.078,2.487v1.492c.166-.083.083.332.083.5C430.957,358.163,430.874,358.163,430.874,358.412Zm-1.327-25.2h.332v-.995C429.63,332.213,429.547,332.959,429.547,333.208Zm.746-13.017h0l.083-.166h-.083Zm0,3.15h0l.083-.5h-.083Zm.166.249h0l.083-.166h-.083Zm0,21.307h0l.083-.249h-.083Zm.415-36.065c0,.083-.166.249-.166.249v1.327c.083,0,.5-.083.5-.332v-.995a1.027,1.027,0,0,1-.166-.249Zm-.166,13.514c.166,0,1.244,0,1.244-.58v-1.244a.307.307,0,0,1-.166-.249h-.166l-.829,1.078v.995Zm0,12.934h.332v-.5h-.332Zm.166-5.555h0l.083-.332h-.083Zm.166-24.126h0l.083-.083h-.083Zm0,1.492h0l.083-.332h-.083Zm.332,61.02h.746c0-.5.746-1.078.829-1.244,0-.083.083-.249.083-.332,0-.5-.332-.829-.58-.829h-.166C432.366,366.869,431.371,366.952,431.371,368.112Zm1.658-16.665c.332,0,.415-.249.415-.58,0-.829-.912-2.487-1.658-2.487v.083l.5.746v.083c0,.746-.58.332-.58,1.078.415,0,.332-.249.746-.249h.083C432.532,350.536,432.532,351.448,433.029,351.448Zm-1.078-25.7c.166,0,.415-.332.415-.746h-.415Zm0,34.656h0l.083-.083h-.083Zm0,3.482h.332V363.8h-.332Zm.166-54.554c.166,0,.58-.166.58-.332s-.083-.332-.166-.332C432.2,308.584,432.117,309.082,432.117,309.33Zm.083,17.411h.332v-.083H432.2Zm0,32.168h0l.083-.083H432.2Zm0,10.529h0l.083-.083H432.2Zm.58-54.885c.083,0,.415-.083.415-.332h-.829C432.366,314.471,432.615,314.554,432.781,314.554Zm-.415,26.614h0l.083-.083h-.083Zm.249-12.851h0l.083-.083h-.083Zm2.239,30.842h.829a6.366,6.366,0,0,0-1.492-2.985v-1.327l-.912-1.078h-.5c0,.58.415,1.078.415,1.575,0,.746-.58,1.078-.58,1.741.415,0,.415-.332.829-.332a1.1,1.1,0,0,1,.58.249v.249c0,.083.083.5-.083.5v.995A1.056,1.056,0,0,1,434.853,359.158Zm-1.244,2.073h-.995v.746l.083.083c0,.166.083.58.083.746h.995c0-.746-.083-.58-.083-.995,0-.5.332-.58.5-.58V360.4C433.693,360.4,434.024,361.231,433.61,361.231Zm-.829-31.754h.415v-.746h-.415Zm.746-7.462c.083,0,.166-.083.166-.249h1.244c.332,0,.415-.5.415-.829,0-.083,0-.58-.166-.58h-1.244c-.166.58-.912,0-.912.829C433.029,321.518,433.2,322.015,433.527,322.015Zm-.5,31.256h.58c0-.332-.083-.746-.415-.746h-.166Zm1.409-27.277h.166c0-.083.083-.5.332-.5v-1.244c-.5,0-.829-.995-.912-.995h-.083c-.083,0-.332.249-.332.249v1.741a.655.655,0,0,0-.415.5c.166,0,.166-.083.415-.083C434.024,325.58,434.024,325.995,434.439,325.995Zm-1.161,14.923h.332a8.026,8.026,0,0,1,.166-.995c-.166,0-.332.249-.5.249v.746Zm0,28.023h0l.083-.083h-.083Zm.166-25.453c.746,0,.746-.249,1.492-.249v-.5C434.522,342.742,433.444,342.908,433.444,343.489Zm.083-11.193h0l.083-.083h-.083Zm.829,35.319c.083,0,.332,0,.332-.249v-1.492l-.249-.249h-.746c0,.083,0,.249.083.249v.995a.081.081,0,0,0-.083.083A.654.654,0,0,0,434.356,367.615Zm-.415-51.652a.727.727,0,0,0,.5-.58c0-.249-.083-.58-.332-.58h-.166v1.161Zm.415,54.554c.166,0,.58-.249.58-.5s-.166-.746-.415-.746a.67.67,0,0,0-.58.746C433.941,370.268,434.024,370.517,434.356,370.517Zm-.249-31.837h0l.083-.083h-.083Zm0,21.225h0l.083-.332h-.083Zm.249-41.122h.415c0-.083-.166-.332-.332-.332h-.083Zm.746,46.429h.166c-.332-1.824.415,0,.415-.829a4.346,4.346,0,0,0-.912-.829c-.083,0-.415.249-.5.249v.995C434.77,364.713,434.853,365.211,435.1,365.211Zm-.58-56.709h0l.083-.083h-.083Zm.332,37.06c.415,0,.332-.829.332-.995-.166,0-.58,0-.58.5C434.522,345.313,434.6,345.561,434.853,345.561Zm-.332,5.886c.5,0,1.244-1.492,1.244-1.99v-.249a.753.753,0,0,0-.58-.249c-.083,0-.415,0-.415.249v1.078l-.166.083-.083,1.078Zm.332,2.57h0l.083-.332h-.083Zm.083-37.557h.829c0-.332.083-.829.5-.829.166,0,.166.166.332.166h.083l.912-1.244c.415,0,.829-.083.829-.58v-.083a1.853,1.853,0,0,0-.829-.249c-.415,0-.995,1.327-1.658,1.327-.332,0-.332-.083-.415-.083C435.1,314.719,434.936,316.046,434.936,316.461Zm0,52.232h.912c0-.332-.083-.746-.5-.746C435.019,367.946,434.936,368.361,434.936,368.693Zm.083-60.937h.332v-.166h-.332Zm.415,54.885h.995c0-.5-.5-.5-.5-.995h-.663l-.166.249v.083A2.431,2.431,0,0,0,435.434,362.64Zm-.166-50.657c.083,0,.995-.083.995-.5-.5,0-.5.249-.995.332Zm0,11.027h0l.083-.332h-.083Zm0,18.157h.415a.464.464,0,0,0-.415-.5Zm.58-16.167c.415,0,.415-.249.829-.332v-.249c0-.083,0-.58-.166-.58h-.829c0,.249.332.332.332.746C435.931,324.751,435.848,324.751,435.848,325Zm.166,46.263h0l.083-.083h-.083Zm.332-58.782h0l.083-.083h-.083Zm0,35.733h0l.083-.332h-.083Zm.58,17.991h.166c0-.5-.415-1.244-.829-1.244v.5Zm-.332-7.047h0l.083-.166h-.083Zm0,10.778h0l.083-.166h-.083Zm.332-60.689h1.244a.7.7,0,0,1,.166-.5v-.829c-.58.249-.58-.083-.58-.332,0-.332.166-.995.415-1.078V305.1c-.912,0-.829.746-1.409,1.327v.249c0,.332.415.5.746.5v.249c0,.58-.746.995-.746,1.327C436.76,309,436.76,309.247,436.926,309.247Zm.415,42.2h0l.083-.083h-.083Zm.249,1.575h.58v-.829C437.921,352.194,437.589,352.691,437.589,353.023Zm.166,7.628c-.166,0-.166.5-.166.58.5,0,.5-.249.995-.249v-.332Zm0,4.063h.166v-.083h-.166Zm.912-.58c.083,0,.332,0,.332-.249,0-.5-.746-.5-.829-.5C438.17,363.718,438.253,364.133,438.667,364.133Zm.415,6.384h.415c0-.829.415-1.575.415-2.321,0-.58-.829-2.073-1.409-2.073-.083,0-.166.166-.166.249s-.083.5-.083.5c0,.746.58.829.58,1.492,0,.332-.332.5-.332.746C438.5,369.439,439.165,369.6,439.082,370.517Zm-.829-59.031h0l.083-.249h-.083Zm.912,5.306v-.746h-.083c-.083,0-.415.249-.415.332C438.667,316.709,439.082,316.792,439.165,316.792Zm.332-.829h.166c.083-.083.415-.249.415-.332,0-.249-.415-.5-.415-.829h-.58c0,.249.332.249.415.249Zm-.415,45.517h0l.083-.083h-.083Zm.5-5.306h0l.083-.083h-.083Zm.829,5.555c.166,0,.332-.083.332-.5v-.083l-.58-.829h-.083c-.166,0-.166.332-.166.5C439.828,361.148,439.994,361.728,440.408,361.728Zm-.166,1.161h0l.083-.083h-.083Zm1.078,6.052h.332v-.332h-.332Zm.995.995h0l.083-.166h-.083Z" fill="#305268"/>
      <path id="e" d="M382.455,373.335c-.083,0-.083,0-.166-.166h-1.244l-.166.166h-.912c-.332,0-.166-.332-.166-.5,0-.746.58-.746.58-1.492,0-.166-.083-.332-.083-.5-.5-.332-.746-2.073-1.244-2.073v1.741c.166,0,.083.5.083.5,0,.5,0,.58-.5.995v.083c0,.249.083.249.083.5s0,.5-.166.5-.166,0-.166-.083h-1.244l-.746-.995h-.166c-.332,0-.332.083-.58.083-.829,0-2.985-1.492-2.985-2.57h-.083c-.166,0,0,.5-.332.5s-.415-.5-.5-.829a1.06,1.06,0,0,1-1.244-.995l-1.244-1.492c0-1.078-3.565-5.306-3.565-7.71,0-.249.083-.249.083-.5,0-.58-.5-1.078-.5-1.741,0-.332.083-.332.083-.746,0-.332-.083-.332-.083-.58a1.2,1.2,0,0,0,.083-.5s0-.5-.083-.58v-2.239l.083-.083V350.7l-.083-.083v-1.492c.332-.083.332-.332.332-.746,0,0,0-.5-.166-.5v-1.741c-.083,0-.083-.249-.083-.332,0-.249.083-.249.083-.5s-.083-.249-.083-.58c0-.166,0-.249.083-.249V343.24c0-.58.58,0,.58-.995-.166,0-.166.083-.415.083-.083,0-.332,0-.332-.249v-1.244l.5-.58v-.083c0-.249-.332-.249-.332-.5,0-.332.083-.332.083-.5,0-.332-.083-.332-.332-.58v-2.985a.7.7,0,0,0,0-.663v-1.327l.332-.5v-1.492c-.332-.249-.332-.249-.332-.58s.083-.332.083-.58c0-.5-.083-.5-.083-.829s.083-.332.083-.746a1.232,1.232,0,0,0-.083-.5v-1.741a.7.7,0,0,0,.332-.58c0-.332-.332-.332-.332-.58,0-.5.5-.332.5-.58a11.42,11.42,0,0,0-.5-1.327v-2.239s.166-.332.332-.332v-.166c0-.249-.083-1.078-.332-1.244v-1.99l.083-.166v-1.244a5.28,5.28,0,0,0,.829-1.492c0-.249-.083-.249-.083-.5,0-.332.332-.332.332-.746,0-.249-.083-.249-.083-.332,0-.332.58-.746.829-.746v-1.492c1.824-1.492,3.316-4.974,5.14-5.8l.083-.166v.829s.083.249.166.083c0-.083.332-.332.415-.5v-.083c0-.249-.332-.249-.332-.5,0-.5,1.244-.332,1.492-1.078h1.409a.257.257,0,0,0,.166.083h.083c0-1.492,3.068-2.487,3.98-2.487.58,0,.415.58.829.58.5,0,.995-.58,1.658-.58.083,0,.166,0,.166.083h.829c0-.332.332-.083.332-.083.415,0,.415.332.746.332l.58-.746h.912c.083.332.995.58,1.078.58V302.7c.58,0,.415,1.078.829,1.078v1.244c0,.746,2.321,2.487,2.321,3.98,0,.746,0,0-.083.5.332,0,.5-.249.58-.995h.332c.415,0,.58.829.58,1.244,0,.829-1.327,2.073-1.327,2.321.083,0,.332.249.415,0h.912c.083.249.415,0,.5,0v-1.078c-.083,0-.332-.249-.415-.332a1.881,1.881,0,0,0-.083-.332h.912V309c-.083,0-1.907-2.985-2.073-3.316v-.166a1.2,1.2,0,0,0,.083-.5c0-.829-.829-1.575-.829-2.321,0-.332.083-.829.5-.829h.083c.5,1.244,2.4,1.244,3.151,2.487h.166a1.165,1.165,0,0,1,.332-.332h.912c.083.166.746,1.078,1.078,1.078l1.327,1.492c-.166.5.415.58.58.58l1.327,1.492V309c0,.5-.083-.332-.332.332-.083.083.083.332.083.332h.912l.912,1.078c0,.5.166,1.824.58,2.073v1.244c-.083,0-.083.083-.083.332v.083a2.277,2.277,0,0,1,.746,1.244c0,.249-.083.249-.083.58,0,.083,0,.5.083.5v1.741c-.083,0-.083.249-.083.332,0,.332.58,1.078.58,1.327,0,.083-.083.083-.166.249v1.99c-.166,0-.166.166-.166.249,0,.332.083.332.083.746,0,.746-.332,1.327-.332,1.99,0,.166,0,.5.166.332v1.492c.083,0,.083.249.083.332,0,.332-.332.332-.332.746,0,.332.332.332.332.58a3.726,3.726,0,0,1-.5.995c-.332,0-.58-1.327-.912-1.492-.58-.332-.58.083-.58-.5s.5-.746.995-.746v-1.244c0-.5-1.658-1.492-1.658-2.57v-1.078c-.995,0-1.409.5-1.409,1.824,0,.332.083.332.083.58,0,.332-.083.332-.083.746,0,.995,1.492.829,1.492,1.741,0,.249-.415.249-.415.58,0,.58.912,1.244.912,1.99l1.244,1.575v.249c0,.083.083.5-.083.5v.995a3.689,3.689,0,0,1,.912,2.239c0,.5-.332.829-.332,1.244,0,.5.332.5.332.829a1.041,1.041,0,0,1-1.078,1.078c-.332,0-.332-.083-.58-.083-.415,0-.415.58-.746.58-.166,0-.415,0-.415-.332h-.829c0,.332-.083.332-.083.332-.083,0-.083,0-.166-.332H397.3l-.083.332h-1.658c-.083-.5-.415-.332-.5-.58h-.829c0,.249-.083.083-.332.083-.332,0-.829-.58-1.327-.58H392.4l-.5.58h-.166s-.166.083-.166-.083H389.42c0,.083-.083.083-.166.083-.166,0-.166-.083-.5-.083-.083,0-.083.083-.332.083-.415,0-.083-.58-.5-.58h-.166l-.5.58h-.083l-.58-.58h-.083c-.166,0-.166.166-.332.166s-.332,0-.332-.166h-.912l-.166-.332v-.083c0-.083.166-.58.332-.58v-.995h-.083c.083,1.244-.995,1.078-.829,2.487-.083.249-.5.746-.746.746l-.5-.829h-.166c-.166,0-.166.083-.332.083s-.332-.249-.332-.332c0-.332.083-.332.083-.58a.293.293,0,0,0-.332-.332c-.083,0-.415.249-.58.249v.083a.5.5,0,0,0,.083.332v.829a1.67,1.67,0,0,0-.166.5h-.083c-.332,0-.332-.332-.5-.332-.58,0-1.658,1.244-1.658,2.073,0,.332.58,0,.58.5v2.239c-.332.083-.415.249-.415.5,0,.083,0,.332.166.332v1.492c.166,0,.166.166.166.249s0,.5-.166.5v1.741l-.166.083v.829c.332.083.166.58.415.746v.332c0,.58-.415.58-.415,1.078,0,.332.166,1.327.415,1.327v2.073l-.083.083v1.492c.166.083.083.58.332.58v1.492c.332,0,.58,3.068,1.244,3.068H383.2c0,.083,0,.083.083.083.166,0,.332-.5.58-.5h.083a4.038,4.038,0,0,1,.995,2.073h.746a1.98,1.98,0,0,0,.166-.746c0-.332-.332-.58-.332-.829a.917.917,0,0,1,1.244-.829c0-.829,1.078-.58,1.078-1.327,0-.249-.083-.249-.083-.5s.083-.249.083-.5-.083-.249-.083-.5c0-.332.332-.332.332-.746,0-.249-.083-.249-.083-.58,0-.083,0-.249.083-.249v-3.731c-.083,0-.083-.332-.083-.5,0-.249.083-1.327.415-1.492v-.829l-.083-.083v-1.741l.415-.5h.912c.166,0,.166.249.166.332,0,.332-.083.332-.083.746,0,.083,0,.5.332.5h.912c.166-1.492,1.409-1.244,1.824-2.239h1.492l.083.083h.746c.083-.083.083-.083.166-.083.166,0,.166.083.332.083.415,0,.829-.332,1.078-.332.415,0,.415.332.829.332h.415c.083-.083.166-.083.332-.083.415,0,.995.995,1.409.995.083,0,.58-.995.912-.995.083,0,.083.083.166.249h.912c.083.58.58,1.327.58,1.824,0,.332-.332.58-.332.995,0,.332.083.332.083.746,0,.5-.332.5-.332.995,0,.332,0,.58.332.746v3.068a.627.627,0,0,0-.083.332c0,.332.332.332.332.746,0,.995-2.156,5.969-2.985,6.3v.829c.083.083.083.332.083.5v.332c-.829,1.078-3.482,5.057-4.892,4.726a.9.9,0,0,1-.912.829c-.166,0-.166-.083-.415-.083h-.083c-.166.332-.746.995-1.078.995s-.083-.5-.332-.5c-.415,0-.415,1.244-1.492,1.078-.166.332-.166.332-.5.332-.166,0-.166-.083-.332-.083s-.166.332-.5.332c-.083,0-.083-.083-.415-.083-.58,0-1.492.58-2.156.58-.415,0-.829-.829-.995-.829l-.58.746-.58-.746h-.083c0,.249,0,.829-.415.829l-.5-.58h-.166C382.621,372.921,382.621,373.335,382.455,373.335Zm-16.582-32.417h.083v-.332h-.083Zm.166,12.436c.332,0,.415-.5.415-.746h-.415Zm.249-36.231h.332v-.415h-.332Zm.166,10.364h.083V327.4h-.083Zm0,7.213h.58v-.083h-.58Zm.415-5.8h.912a.616.616,0,0,0-.5-.5A.655.655,0,0,0,366.869,328.9Zm.083,24.043h.083v-.083h-.083Zm1.244-36.065c.829,0,.746-1.824,1.741-1.741v-.083c0-.249-.083-.249-.083-.5,0-.332.166-.332.166-.829-.5,0-2.736.995-2.736,1.492,0,.332.415.5.415.746s-.166.249-.166.746a3.591,3.591,0,0,0,.415-.083C368.112,316.461,367.946,316.875,368.2,316.875Zm-.58,21.059h.083v-.083h-.083Zm0,22.717h.332v-.083h-.332Zm.58-20.23c.083,0,.5-.166.5-.332s-.415-.249-.5-.249c-.166,0-.415,0-.415.249S368.029,340.421,368.2,340.421Zm-.415,4.974h.083v-.332h-.083Zm0,14.011h.083v-.166h-.083Zm0,3.233h.332v-.083h-.332Zm.249-44.19a.66.66,0,0,0,.746-.746A.74.74,0,0,0,368.029,318.45Zm.829,5.969h.332v-.829c-.415,0-.5-.58-1.078-.58v.5Zm0-11.441h.332V312.9h-.332Zm0,17.411h.083v-.083h-.083Zm0,13.017a.594.594,0,0,0,.332-.5h-.332Zm.166,15.255a.594.594,0,0,0,.332-.5h-.332Zm.415-38.138h.083v-.083h-.083Zm.166-3.4h.332v-.5C369.853,316.626,369.6,316.958,369.6,317.124Zm.249,4.643h.083v-.829a.3.3,0,0,0-.332-.332C369.6,321.186,369.853,321.269,369.853,321.767Zm-.249,18.654h.083v-.166H369.6Zm.249,3.731h.083v-.083h-.083Zm0,2.073h.083v-.083h-.083Zm1.161-1.244a.919.919,0,0,0-.995-.829C370.019,344.649,370.765,344.981,371.014,344.981Zm-.746-5.057h.415c0-.249,0-1.078-.332-1.078h-.083Zm.5-21.307c-.166,0-.332.332-.332.5.083,0,1.078-.083,1.078-.5Zm-.083-.912c.415,0,.415-.746.415-1.078C370.848,316.626,370.682,317.372,370.682,317.7Zm.083-10.032h.083v-.083h-.083Zm0,47.506h.332V355.1h-.332Zm.083-43.2h.415v-.5A.464.464,0,0,0,370.848,311.983Zm.829,3.233v-.5h-.829C370.848,315.217,371.429,315.217,371.677,315.217Zm-.746,21.39h.415a.37.37,0,0,0-.332-.249v-1.492h-.083Zm.249-14.343v.995c.083,0,.5-.083.5-.332v-.995C371.594,321.932,371.18,322.015,371.18,322.264Zm0,42.781h.415a.454.454,0,0,0-.415-.332Zm.166-45.6h.332v-.166h-.332Zm.249,6.55c.415,0,.995-.995.995-1.492h-.829C371.76,325.415,371.594,325.166,371.594,325.995Zm0,1.99h.083V327.9h-.083Zm0,3.98c.5,0,.829-.083.829-.829h-.829Zm.166,8.705h.083v-.083h-.083Zm0,2.156h.332v-.415h-.332Zm.58,16.084c0-.5-.166-.746-.58-.746C371.76,358.661,372.009,358.909,372.341,358.909Zm-.083-39.216c.332,0,.332-.332.332-.58h-.58C372.009,319.362,372.009,319.694,372.258,319.694Zm-.249,10.7h.415a3.6,3.6,0,0,0-.332-.58h-.083Zm0,3.068h.083v-.083h-.083Zm.746,17.162c0-.332-.332-.746-.58-.746C372.175,350.37,372.341,350.619,372.755,350.619Zm-.5,5.057h.332a.348.348,0,0,0-.332-.332Zm.249-15.753h.332v-.083h-.332Zm.083-4.062c.332,0,.5-.332.5-.746C372.672,335.115,372.589,335.446,372.589,335.861Zm.332-26.945c0,.083-.083.58-.083.746.746,0,.58-.58.995-.829v-1.244h-.746v1.244C373,308.75,372.921,308.916,372.921,308.916Zm0,34.158H373v-.083h-.083Zm0,14.509H373V357.5h-.083Zm.166-41.62h.083v-.332h-.083Zm0,33.992h.083v-.083h-.083Zm.166-23.463h.58a.536.536,0,0,0-.415-.5h-.166Zm0,17.162h.083v-.249h-.083Zm0,10.281h.083V353.6h-.083Zm0,12.188h.083v-.083h-.083Zm.249-46.677h.083v-.166H373.5Zm.58,12.768v-.829h-.415C373.667,331.716,373.833,332.213,374.082,332.213Zm-.415,19.9h.415v-.083h-.415Zm0,6.716v.829h.083c.083-.58.332-.58.332-1.244C374,358.412,373.667,358.578,373.667,358.827Zm.249,9.286a.9.9,0,0,0,.912-.829C374.165,367.283,373.916,367.366,373.916,368.112ZM374,305.019h.332v-.5H374Zm0,25.37a1.181,1.181,0,0,0,.166.332c.083,0,.829-.58.829-.746,0-.332-.332-.995-.746-.995-.332,0-.083.332-.332.5l.083.912Zm.166-6.384h.083v-.249h-.083Zm0,37.806h.332v-.332h-.332Zm.829-10.612v-1.078c-.332,0-.58.083-.58.5A.623.623,0,0,0,374.994,351.2Zm-.249-8.871h.083v-.083h-.083Zm.083-5.472h.415v-.995C374.828,335.861,374.828,336.607,374.828,336.856Zm0,18.571h.58v-.58C375.242,354.847,374.828,355.1,374.828,355.427Zm.083-21.473h.083v-.083h-.083Zm.166-24.292h.083v-.415h-.083Zm0,2.57h.083v-.083h-.083Zm0,40.708h.415a.3.3,0,0,0-.332-.332h-.083Zm.249-44.77h.58v-.995C375.657,307.175,375.325,307.921,375.325,308.17Zm.332,39.8v-.995c-.166,0-.332.249-.332.5C375.325,347.634,375.408,347.966,375.657,347.966Zm-.166-30.593h.083v-.332h-.083Zm0,21.059h.415v-.166h-.415Zm.829-7.959c0-.332-.083-.746-.415-.746C375.906,330.14,376.071,330.472,376.32,330.472Zm-.249,1.492v1.492c0,.166.166.249.332.249,0-.58-.083-.5-.083-.829,0-.5.415-.5.415-1.327A.456.456,0,0,0,376.071,331.964Zm.166-19.483h.083v-.166h-.083Zm0,8.788h.58c0-.249-.332-.332-.5-.332h-.083Zm0,31.422h.083v-.083h-.083Zm0,3.233h.332v-.083h-.332Zm0,8.871h.083v-.083h-.083Zm0,2.985h.083V367.7h-.083Zm.746-49.828v-.746h-.415C376.569,317.455,376.735,317.953,376.983,317.953Zm-.415,31.505h.415v-.332A.584.584,0,0,0,376.569,349.458Zm.083-15.006h.332v-.166h-.332Zm0,11.524h.083v-.5h-.083Zm.166-39.8c.415,0,.58-.249.58-.829C377.066,305.268,376.818,305.517,376.818,306.18Zm2.321,8.291c0-.746-.58-1.492-.58-2.321,0-.249.083-.249.083-.58a4.042,4.042,0,0,0-.746-1.824v-1.327c.415-.083.415-.995.415-1.327a2.482,2.482,0,0,0-.829.332c0,.249.332.332.332.746,0,.829-.995.249-.995.995a3.817,3.817,0,0,0,.829,1.492V312.4c.166,0,.58.995.58,1.244s-.415.332-.415.58c.415,0,.332-.083.58-.083C378.807,313.973,378.807,314.471,379.139,314.471Zm-2.321-7.047c.083,0,.58-.249.58-.332h-.58Zm0,6.218h.332v-.5h-.332Zm0,13.1h.083v-.083h-.083Zm0,9.369h.332v-.083h-.332Zm.249-20.644c.166,0,.58-.166.58-.5C377.481,314.968,377.066,315.217,377.066,315.466Zm0,28.437h.083v-.083h-.083Zm.166,13.431h.58c0-.249-.083-.332-.332-.332C377.315,356.92,377.232,357.086,377.232,357.334Zm0,5.555h.083v-.332h-.083ZM377.9,318.2v-.746h-.332C377.564,317.621,377.73,318.2,377.9,318.2Zm-.332,48.916h.083v-.083h-.083Zm.083-39.381h.415v-.5C377.9,327.239,377.647,327.653,377.647,327.736Zm.083,24.707h.083v-.5h-.083Zm1.161-35.816v-.5c-.5-.083-.5-.332-.995-.332C377.9,316.461,378.559,316.626,378.89,316.626Zm-.912,20.81h.083v-.083h-.083Zm0,12.022h.083v-.166h-.083Zm0,12.934h.083v-.083h-.083Zm.083-30.179a.081.081,0,0,0,.083.083l.332.166c.083,0,.332.332.332.5h.083c-.083-1.078.58-.5.58-1.492a.556.556,0,0,0-.58.746Zm.083,22.717c.083,0,.332-.58.332-.746,0-.249-.083-.332-.332-.332Zm.249-24.79h.083v-.332h-.083Zm.166-20.478h.083v-.415h-.083Zm0,14.758h.083v-.166h-.083Zm0,9.783h.083v-.083h-.083Zm0,8.871h.083v-.332h-.083Zm1.327-13.68h.58v-1.327s.5-.249.5,0h1.244c.083-.083.166-.083.332-.083.083,0,.166,0,.166.083h.829c0-.083.166-.083.332-.083.829,0,.332,1.244.912,1.244.332,0,.166-.083.415-.083.083,0,.083.083.166.083,1.409,0,3.233-2.736,3.233-4.477,0-.249-.083-.332-.415-.58v-1.658c-.083-.083-.166-.083-.166-.249a.954.954,0,0,0,.58-.995c0-.58-.58-.995-.58-1.575,0-.249,0-.58.332-.58h1.078l.58-.746h.912c.166.249.912.332,1.078.332v-.083l-.58-.58v-.249c0-.249.083-.249.083-.332v-.083l-.58-.746h-.166c-.58,0-.332,1.492-.995,1.492-.5,0-.332-.995-.912-.995-.166,0-.332.332-.5.332s-.332-.249-.332-.332c0-.5.415-.5.415-.995v-.249c-.912,0-.5-.829-.995-.995v-1.078c0-.5-1.824-1.327-1.907-1.575h-.995c-.083.332-.166.332-.415.332-.415,0-.415-.58-.58-.58s-.166.332-.58.332c-.332,0-.332-.083-.415-.083h-.083c0,.332-.083.829-.5.829-.166,0-.166-.083-.415-.083-.58,0-1.244,1.99-1.741,2.321v.083a.409.409,0,0,0,.083.249v.995c-.415.083,0,.995-.332,1.244v.829c.083,0,.083.249.083.332,0,.249-.083.249-.083.58s.083.332.083.746a1.232,1.232,0,0,1-.083.5v.829l.083.249v.829l-.083.083v.995c.083.083.083.5.083.5a1.232,1.232,0,0,1-.083.5v1.741a2.309,2.309,0,0,1,.332.995c0,.083-.083.249-.332.249-.332,0-.083-.083-.746-.083v.995a.307.307,0,0,1,.166.249h.083c.083,0,.083-.746.5-.746a.538.538,0,0,1,.415.5C379.968,328.98,379.885,329.145,379.885,329.394Zm-1.078,34.656h.083v-.083h-.083Zm.332,2.736-.166.249v.829a1.041,1.041,0,0,0,1.078-1.078Zm.58-3.233h.332v-.083h-.332Zm.083-1.492h.415v-.5A.464.464,0,0,0,379.8,362.06Zm.5-56.792h.332v-.083H380.3Zm.746,28.189h.166a.538.538,0,0,0,.415-.5,9.54,9.54,0,0,0-.995-2.073h-.083c0,.083-.083.5-.083.58l-.083.249v.5A1.029,1.029,0,0,0,381.046,333.457Zm-.746,35.07h.332v-.083H380.3Zm1.078-3.731c.166,0,.415-.332.415-.746,0-.332-.083-.995-.5-.995a.81.81,0,0,0-.829.746A1.064,1.064,0,0,0,381.378,364.8Zm-.663,6.135.829.829h.58c0-.5-.166-.5-.166-.746,0-.332.332-.332.332-.746,0-.332-.415-.5-.746-.5a.994.994,0,0,0-.829.995Zm1.409-65.5c0-.829-.5-.829-.5-1.575h-.58v.332C381.543,304.522,381.626,305.434,382.124,305.434Zm-.829,63.093c.166,0,.332-.249.332-.5,0-.332-.166-.829-.58-.829C381.046,367.864,381.212,367.864,381.295,368.527Zm0-32.417h.332c0-.746-.166-.746-.166-1.741h-.083l-.083,1.741Zm.746-32.666V302.2c-.332,0-.332.332-.332.58S381.709,303.444,382.041,303.444Zm.166,32.915h.912c0-.5-.083-.5-.083-.829,0-.249.083-.249.083-.58a.464.464,0,0,0-.415-.5c0,.332.166.332.166.58v.083A1.462,1.462,0,0,0,382.207,336.358Zm.332-26.7c.166,0,.58,0,.58-.332C382.953,309.247,382.538,309.413,382.538,309.662Zm.58,57.124v-1.244H382.7C382.7,365.625,382.87,366.786,383.119,366.786Zm2.57-62.264c.332,0,.083.746.415.746v-1.244c-.332-.249-.332-.746-.912-.746-.332,0-.415,0-.5.5H383.45c-.166,0-.166.332-.166.5v.083c.415.166.415.249.829.249.083,0,.166,0,.166-.083Zm-2.239,6.384h.083v-.166h-.083Zm.995,58.284h.166v-.083h-.166Zm.5-59.528h.332c0-.249-.083-.332-.332-.332Zm.663,57.455h.5c0-.083.166-.332.166-.5,0-.249-.332-.58-.332-.829s.166-.083.166-.5h-.58a.609.609,0,0,1-.166.5v.829A.561.561,0,0,1,385.606,367.117Zm0-35.651h.332v-.995C385.689,330.472,385.606,331.218,385.606,331.467Zm.58-24.292h.083v-.083h-.083Zm0,2.736h.415v-.166h-.415Zm0,58.119h.083v-.083h-.083Zm.5-32.583c.332,0,.829-.995.829-1.327-.166,0-.829.083-.829.5,0,.083.083.083.083.332S386.684,335.2,386.684,335.446Zm.249,28.106h.083v-.083h-.083Zm.249,2.073h.083v-.332h-.083Zm.249-2.985h.083v-.083h-.083Zm.166,7.545h.083v-.166H387.6Zm.249-34.573h.083v-.166h-.083Zm.58-33.661v.332h-.415v-.332Zm.166,12.934h.166c-.083-.746.5-.58.5-1.078H388.01v.829C388.342,314.719,388.425,314.885,388.591,314.885Zm-.166,15.255h.166c-.166-.995.995-1.244.995-2.073,0-.249-.5-.58-.746-.58-.5,0-.58,1.492-.5,1.741-.332.083-.415.249-.415.58A.56.56,0,0,0,388.425,330.14Zm-.415,6.218h.083v-.083h-.083Zm0,27.443h.083v-.332h-.083Zm.332-4.394h.083v-.166h-.083Zm0,6.964h.083v-.083h-.083Zm.083-32.168h.829v-1.741c0-.249-.5-.249-.5-.249,0,.332.332.746.332,1.078C389.005,333.954,388.425,333.954,388.425,334.2Zm.58,24.126c.166,0,.415,0,.415-.249s-.5-.58-.746-.58c-.083,0-.166.083-.166.332A.616.616,0,0,0,389.005,358.329Zm-.5,2.321h.332v-.332h-.332Zm.415-57.372c.332,0,.332.332.332.58,0,.083,0,.5-.332.5-.166,0-.166-.332-.166-.5S388.756,303.278,388.922,303.278Zm-.166,62.1h.332v-.5h-.332Zm.58-53.393h.829s0-.995-.332-.995h-.829S389.005,311.983,389.337,311.983Zm0-2.321h.083v-.083h-.083Zm.415,22.219h.083V331.8h-.083Zm0,22.054h.083v-.083h-.083Zm.332-38.552h.083v-.332h-.083Zm0,55.8h.083V371.1h-.083Zm.166-35.07h.332c0-.249-.083-.332-.332-.332Zm.166,33.495h.332v-.5h-.332Zm.663-43.941c.415,0,.415-.5.415-.829h-.912C390.58,325.166,390.58,325.663,391.078,325.663Zm-.415,36.148h.083v-.083h-.083Zm.829-35.07c0-.332-.332-.5-.746-.5C390.746,326.658,391.161,326.741,391.492,326.741Zm-.415,2.9h.332v-.166h-.332Zm.5,8.54a.348.348,0,0,0,.332-.332c0-.249-.5-.332-.58-.332C391.244,337.685,391.244,338.182,391.575,338.182Zm0,14.26c.083,0,.5-.332.746-.332v-.332h-.995C391.244,351.945,391.244,352.443,391.575,352.443Zm-.083-17.079h1.244v-.5c-.5,0-.58.332-1.244.332Zm0,23.214h.083v-.415h-.083Zm0,1.575h.083v-.332h-.083Zm.166-27.774h.415v-.995h-.415Zm0,32.666h.166v-.332h-.166Zm0,5.14h.415v-.332h-.415Zm.332-55.3h.332a4.674,4.674,0,0,1,.083-.58l.083-.083v-1.244c-.415,0-.332.746-.5.829Zm0,2.321c.415,0,.829-.083.829-.746h-.829Zm.083-12.187a.538.538,0,0,0,.415-.5A.464.464,0,0,0,392.073,305.019Zm.083,10.364h.083V315.3h-.083Zm.663,21.8c.166,0,.415-.746.415-.995h-.912C392.239,336.607,392.239,337.188,392.819,337.188Zm-.415-16.416h.5v-.166h-.5Zm.663,39.3v-.746h-.58C392.487,359.573,392.9,360.07,393.068,360.07Zm.912-52.9c.332,0,1.409-1.078,1.409-1.078v-.166l-.5-.5h-.912c0,.166-.166.58-.415.58-.083,0-.083,0-.332-.083h-.746v.332C392.985,306.429,393.814,307.175,393.98,307.175Zm.332,9.037c.5,0,.5-.829.829-1.078v-1.327c-.415,0-.415-.58-.912-.58-.166,0-.415.083-.415.5,0,.249.083.249.083.5,0,.829-1.078.58-1.078,1.327,0,.083,0,.5.166.5h1.078C394.145,316.212,394.228,316.212,394.311,316.212Zm-1.492,16.167h.332v-.332h-.332Zm0,17.577h.5v-.083h-.5Zm0,11.358h.083v-.083h-.083Zm.166-4.974c.58,0,1.741-1.327,1.741-2.239v-.249a2.558,2.558,0,0,1-.746-.083c-.083,0-.332-.083-.332-.249v-1.244s-.415,0-.5.166a.307.307,0,0,0-.166.249v1.078l.746.829v.083C393.731,355.179,392.985,355.676,392.985,356.339Zm.995-45.682c.332,0,1.244-2.487,1.244-2.819H393.98c-.332,0-.5.332-.5.746,0,.332.166.332.166.746,0,.332-.166.332-.166.58C393.482,310.242,393.814,310.657,393.98,310.657Zm-.166,1.078h.332V311.4h-.332Zm0,57.87h.332v-.746h-.332Zm.166-33.992h.083v-.166h-.083Zm.249,30.261h.332v-.332h-.332Zm.166-43.693h.083v-.5h-.083Zm1.244-2.736c.083,0,.415,0,.415-.249v-.829c-.083-.083-.083-.083-.083-.249,0-.249.332-.332.332-.746a3.609,3.609,0,0,0-.746-1.492c-.166.249-.5.829-.912.829v1.741C395.223,318.45,395.306,319.445,395.638,319.445Zm-.083,5.721h.083c0-.083.166-.249.166-.249v-1.078c-.829.249-.415-.5-.912-.5-.166,0-.332.249-.332.5C394.643,324.254,395.223,325.166,395.555,325.166Zm-.746,7.213h.746a1.159,1.159,0,0,0-.912-1.078c0,.5.332.5.332.829C394.892,332.213,394.809,332.213,394.809,332.379Zm.249,17.079h.083v-.166h-.083Zm0,12.851c.166,0,.58-.249.58-.58h-.58Zm.58-28.6v-.332h-.415A.454.454,0,0,0,395.638,333.705Zm.083.746h.083v-.58h-.083Zm.083,32.417h.415v-.332A.584.584,0,0,0,395.8,366.869Zm.166-52.73h.332v-.083h-.332Zm.166,11.524h.332v-.083h-.332Zm1.244,36.645v-.58h-1.244v.083C396.716,361.811,396.633,362.309,397.379,362.309ZM396.3,307.423h.332v-.332H396.3Zm0,19.069h.083v-.249H396.3Zm.995-3.814c.332,0,.912-.249.912-.746,0-.332-.083-.746-.415-.746h-1.327C396.467,321.767,396.633,322.679,397.3,322.679Zm-.58,28.438h.083v-.083h-.083Zm.663.58v-.5h-.415A.464.464,0,0,0,397.379,351.7Zm.166-24.955v-.995c-.166,0-.332.249-.332.5C397.3,326.492,397.379,326.741,397.545,326.741Zm-.249,21.722h.083v-.083H397.3Zm1.161-12.353h.5c0-.746-.5-.746-.58-1.492h-.746v.5Zm-.829,24.292h.083v-.083h-.083Zm.166-46.511h.746a.3.3,0,0,0-.332-.332C397.959,313.476,397.793,313.642,397.793,313.89Zm.083-2.736h.332v-.083h-.332Zm0,51.4v.995c.332,0,.746,0,.746-.5,0-.249-.083-.746-.332-.746C398.208,362.309,397.876,362.309,397.876,362.557Zm.166-25.37h.332v-.249h-.332Zm0,17h.083v-.332h-.083Zm.249-38.221h.083v-.083h-.083Zm0,38.718h.083V354.6h-.083Zm.166,5.223c0,.332.415.249.58.249.58,0,.083-1.078.995-1.078.332,0,.5.332.912.332,0-.58-.912-.995-.912-1.741,0-.58.166-.5.166-1.327-.995,0-1.078,1.824-1.824,2.487l.083,1.078Zm.249-42.283h.829l.166-.083a3.456,3.456,0,0,1,.5-.166.629.629,0,0,0-.166-.332h-.5A.637.637,0,0,0,398.705,317.621Zm.746,38.221V355.1h-.58C398.871,355.344,399.2,355.842,399.452,355.842Zm-.5-22.385h.083v-.083h-.083Zm.249,1.244h.332v-.083H399.2Zm.166-22.219h.083v-.166h-.083Zm0,49.579h.083v-.083h-.083Zm.332-8.374h.083v-.332H399.7Zm.166-42.532h.083v-.332h-.083Zm.249,3.731h.332v-.166h-.332Zm0,23.3h.332V338.1h-.332Zm1.244,19.732a6.428,6.428,0,0,0-.083-.746c0-.083.083-.083.083-.332-.166,0-.5.083-.5.332A.571.571,0,0,0,401.358,357.915Zm-.415-2.57c.332,0,.58-.5.58-.995C401.193,354.35,400.944,354.93,400.944,355.344Zm.083-3.482h.332v-.083h-.332Z" fill="#305268"/>
      <path id="Trac_58" data-name="Trac 58" d="M319.528,274.426l-.829.332" fill="#fff"/>
      <path id="Trac_59" data-name="Trac 59" d="M317.041,274.841" fill="#fff"/>
      <g id="Groupe_5" data-name="Groupe 5">
        <path id="Trac_60" data-name="Trac 60" d="M262.9,284.707l-15.172-2.4v14.592Z" fill="#305268"/>
        <path id="Trac_61" data-name="Trac 61" d="M317.953,265.057l-1.492.58-46.677,18.24-12.27-1.907-9.037-1.244,64.337-14.509-73.457,12.768L226.588,277Z" fill="#305268"/>
      </g>
      <path id="z" d="M272.436,372.341l-.746-.829v-2.073l-.166-.166v-.995l.083-.166v-1.575c-.166,0-.083-.083-.083-.249,0-.249,0-.58.166-.58h1.327c0-.332.415-.249.5-.5h.829c.332,0,.332.249.332.5s-.166.249-.166.58c0,.249.166.249.166.5,0,.746-.332.58-.332,1.575h.332c.166-.332,3.731-4.974,3.731-4.974.166,0,.166.249.415.249.332,0,.332-.5.746-.5.166,0,.166.083.5.083s.332-.083.5-.083c.083,0,.083.083.415.083.415,0,.415-.083.912-.083,0,.829-.5.829-.5,1.575v.5a8.371,8.371,0,0,1,1.244,3.316c.746,0,.995,1.327.912,1.99l.332.5v1.327c-.58,0-.332-.829-.829-.829-.332,0-.415.083-.58.5h-1.409l-.415.5h-1.907c-.5,0,0-1.244-.58-1.244h-.083c0,.332-.083.995-.5.995-.332,0-.332-.083-.5-.083-.332,0-.332.083-.58.083-.332,0-.332-.5-.58-.5-.332,0,0,.746-.415.746H274.26l-.083-.249h-1.741v.083Zm-.415-9.452a.332.332,0,0,1,0,.663c-.166,0-.332-.249-.332-.332A.357.357,0,0,1,272.022,362.889Zm2.736-5.306c-.166,0-.332.249-.332.5v.249c.58.249.58.5.58.995,0,.332,0,1.741-.5,1.741h-.083l-.746-.995H273.6c-.083,0-.083.083-.166.083-.166,0-.995-.746-.995-.995s.083-.249.083-.58-.332-.332-.332-.746v-.249a12.18,12.18,0,0,1,.829-1.078c.415,0,.415.332.746.332.166,0,.415-.5.415-.746,0-.332-.332-.332-.332-.829,0-.332.332-.332.332-.829,0-.249-.083-.249-.083-.58s0-.58.415-.58c.166,0,.166.083.332.083h.083c0-.083.415-.5.415-.58,0-.249-.332-.332-.332-.746s.166-.5.5-.5.332.166.746.166c0-.58-.332-1.078-.332-1.741,0-.332,0-.58.415-.746v-1.244c1.658-1.078,1.409-4.809,2.985-5.8-.083-.58,1.409-4.311,2.156-4.311.829,0,.415,1.575.912,1.575h.746c0-.995-.166-.995-.166-1.741,0-.083-.083-.5.083-.5v-.995c-.5.332-.58-.083-.58-.5,0-.58,2.985-7.71,3.316-7.71.166,0,.166.332.166.58,0,.166.083.5-.083.5v.5c0,.746.415.746.415,1.327v.5c-.332.083-.083.5-.083.58h.5c0-.083.083-.829.083-.995l.083-.083v-1.244a.5.5,0,0,1-.083-.332c0-.5.415-.746.415-1.078,0-.58-1.078-.332-1.078-1.078s.829-3.316,1.741-3.233v-.083c0-.332-.083-.332-.083-.58v-.249c1.078-.995,1.409-5.472,2.736-5.721v-2.321c.166,0,.166-.249.166-.332,0-.746-.829-.332-.829-.995,0-.332.332-.332.332-.746v-.166l-.746-.829h-.166c-.332,0-.332.083-.5.083-.083,0-.083-.083-.332-.083v.332l.995,1.244v.249c0,.166,0,.5-.166.5h-.995c-.083-.249-.415-.166-.415-.166-.083,0-.415-.083-.415.166H285.7l-.166-.249v-.083c0-.249.415-.5.5-.5v-1.658c-.415,0-.332-.249-.829-.249-.415,0-.912.746-.912,1.327,0,.249.166.249.166.746h-1.327c0-.249-.332-.083-.415-.083-.332,0-.332.083-.415.083s-.166,0-.166-.083h-.415c-.5,0-.5.332-.912.332-.083,0-.166.083-.332-.166h-.995c-.083.249-.912.332-1.078.332-.083,0-.083,0-.166-.083H277c-.083-.5-.166-.5-.5-.5-.083,0-.166-.166-.332.083h-.829a1.688,1.688,0,0,0-.58-.5h-.083l-.5.746h-.995c-.746,0-.58-1.575-.58-1.824-.332-.083-.332-.249-.332-.58,0-.249.083-.249.083-.5,0-.166,0-.332-.083-.332v-1.575l.083-.166v-.995c-.166,0-.083-.083-.083-.249,0-.5.332-.5.332-.829a3.074,3.074,0,0,0-.332-1.244v-2.985a2.755,2.755,0,0,0,.332-1.078c0-.249-.083-.249-.083-.5,0-.5,1.492-.829,1.741-.829.415,0,.415.332.829.332.332,0,.332-.083.58-.083.332,0,.332.083.58.083h.166c.083-.249.332-.58.5-.58.415,0,.5.5.995.5a1.88,1.88,0,0,0,.332-.083l.166-.083h2.156c.083.249.912.332,1.244.332.083,0,.332,0,.332-.083h2.156l.083-.249h.829l.083.083h.829l.083-.083h1.078c0,.083.083.083.166.083.332,0,.332-.083.58-.083.083,0,.415,0,.415.083h1.492l.332-.332h.083c.166,0,.332.249.332.5v.083c-.995.746-.5.58-.5,1.327,1.078,0,1.327-2.073,2.239-2.073.58,0,.912,1.078,1.658,1.078.415,0,.415-.995.912-.995h.083a2.386,2.386,0,0,0,.332.5h1.492l.083.083h1.244c.083-.083.083-.083.166-.083a.257.257,0,0,1,.166.083h.746c.166-.249.5-.083.58-.332h.829l.083.083h.829c.083-.083.166-.083.332-.083.415,0,.746.58.746.995h.58l.995-1.244h.166c.083,0,.332,0,.332.249h1.244c.083.332.332.332.58.332.415,0,.415-.332.746-.332h.083a1.194,1.194,0,0,1,.166.249v1.327l.166.083v1.244c-.166,0-.083.249-.083.332,0,.5.332.5.332.995s-.332.5-.332.829c0,.249,0,.332.166.332V309c.083,0,.083,0,.083.083,0,.249-.083.249-.083.58a1.459,1.459,0,0,0,.083.5v2.985c-1.244.58-1.824,4.974-3.151,6.052-.415.332-.415,0-.415.332s.166.332.166.746c0,1.078-1.741,2.073-1.741,3.316,0,.249.083.249.083.332,0,.5-.746,1.492-.995,1.492.083,1.078-6.8,15.421-6.8,15.421-.166,0-.166-.249-.415-.249a.939.939,0,0,0-.912.995c0,.5.415.829.415,1.327,0,1.575-1.824,2.736-1.824,3.98l-1.078,1.327v.083c0,.249.166.249.166.58,0,.58-1.078,2.487-1.658,2.487-.083,0-.083-.249-.332-.249-.083,0-.415.332-.5.332v.332a.769.769,0,0,0,.58.746v.58c0,1.492-1.078.5-1.078,1.244a.5.5,0,0,0,.083.332v2.073c0,.249-.415.332-.5.332a10.533,10.533,0,0,0-.829.995h-.166a.425.425,0,0,1-.5-.332h-.995c-.083.083-.166.083-.332.083a.627.627,0,0,1-.332-.083c-1.409.249-1.078-1.492-1.907-1.492H282.8a2.2,2.2,0,0,1-.912,1.99v.083c0,.249.332.249.332.5s-.083.332-.332.332c-.166,0-.415-.5-.415-.58a3.59,3.59,0,0,0-.415-.083c-.415,0-.746.083-.912.746l-.166.083c-.166,0-.415-.083-.332-.5h-.332c-.166,0-.5,0-.5.249V360.4s-.332,0-.415-.083a5.477,5.477,0,0,1-.415-1.244c-.415,0-.166.746-.58.829V361.4l-.332.332h-.829V360.4C275.587,361.148,275.587,357.583,274.758,357.583Zm-.829-50.077c0-.58-.166-.829-.58-.829C273.348,307.175,273.514,307.506,273.929,307.506Zm0,3.9v-.5h-.415A.538.538,0,0,0,273.929,311.4Zm.166-5.14h.415c0-.249-.166-.332-.415-.332Zm.663,3.98h.083v-.083h-.083Zm.415,54.056a.881.881,0,0,1,.829.995c0,.249,0,.58-.415.58h-.166l-.58-.829V364.8C274.758,364.547,274.841,364.3,275.172,364.3Zm-.332-57.372h.746v-.5C275.255,306.429,274.841,306.512,274.841,306.926Zm.332,49.165h.083v-.5h-.083Zm1.492,15.089c.166,0,.415-.083.415-.332,0-.332-.58-1.244-.58-1.741h-.166c-.166,0-.166.083-.5.083-.083,0-.083-.083-.332-.083a.3.3,0,0,0-.332.332C276.333,369.439,276,371.18,276.665,371.18Zm-.995.249h.083v-.083h-.083Zm.249-69.643h.332V301.7h-.332Zm0,7.628H276v-.5h-.083Zm2.4,47.921c0-1.078-.746-3.233-1.824-3.233C276.5,355.1,277.494,357.334,278.323,357.334Zm-1.741-46.843h.083v-.166h-.083Zm0,46.926h.083v-.5h-.083Zm.083,2.487h.746v-.746A.7.7,0,0,0,276.665,359.9Zm.166-10.032h.083v-.5h-.083Zm.663-2.9h.083v-.083h-.083Zm.249,2.239h.995c.083-.249.5,0,.5-.5,0-.249-.083-.5-.415-.5-.415,0-.5.332-1.078.332v.663Zm0,2.653h.083v-.249h-.083Zm.58,1.741c0-.5-.083-1.244-.58-1.244C277.742,353.106,277.742,353.6,278.323,353.6Zm-.415-42.864h.083v-.083h-.083Zm0,53.642h.083V364.3h-.083Zm.332-60.108h.083v-.083h-.083Zm0,3.731h.332v-.249h-.332Zm0,57.041h.083v-.332h-.083Zm.58-12.436h.166v-.083h-.166Zm0,11.524h.166v-.083h-.166Zm.5,5.306c0,.332.829.332.829.332v-1.078c0-.249-.829-.249-.829-.249Zm.415-59.528h.415v-.332h-.415Zm0,32.417h.166v-.249h-.166Zm0,16.747h.166v-.083l-.166-2.487Zm.5-50.325h.332v-.332h-.332Zm2.653,33.08V340.5c-.083,0-.5-.166-.58-.166l-.083-.083h-1.244l-.332.249v1.078c.58,0,.332-.829.912-.829S281.971,341.83,282.883,341.83Zm-2.239,1.244h.166v-.083h-.166Zm0,9.534h.166v-.332h-.166Zm0,18.24h.415v-.332h-.415Zm2.321-24.126h.083c0-.746.166-.829.166-1.327s-.5-.249-.5-.829c0-.5.415-.5.415-.995a.363.363,0,0,0-.083-.249l-.746-.829h-.415v1.244a5.9,5.9,0,0,0-.58,1.244v.249h.912v1.327C282.634,346.473,282.717,346.722,282.966,346.722Zm-1.409,24.126c.415,0,.829-.5,1.327-.5v-.083c0-.249-.166-.249-.415-.249A.846.846,0,0,0,281.556,370.848Zm.083-14.011a5.283,5.283,0,0,0,.166.58c.332,0,.415-.5.415-.746h-.58Zm.249-2.238c0,.249.912.829,1.078.829.332,0,.58-.332.58-.829,0-.58-.415-.58-.415-1.078,0-.166,0-.5.083-.5v-.995c-.083-.083-.083-.5-.083-.5,0-.58.415-.58.415-1.244v-.5c-.083-.249-.912-.829-.912-1.492h-.58c0,.746-.166.829-.166,1.327,0,.332.332.332.332.746,0,.083,0,.083-.166.083v2.736l-.083.083-.083,1.327Zm3.316,16.25v-.083a1.214,1.214,0,0,1-.746-1.078l-.995-1.244v-.083s0-.166.083-.166V367.2l-.083-.083c0-.083-.083-.332-.083-.5,0-.58.332-.58.332-1.078H282.3s-.083-.332-.166-.332v-.083s1.492-1.824,1.658-1.99h.166c.083,0,.083.083.332.083.166,0,.166-.083.332-.083.415,0,.829.332,1.078.332s.332-.332.746-.332h.415c.5.332.746.995,1.409.995h.166l.995-1.244h.166c.332,0,.58.332.912.332s.415-.332.58-.332c.58.332.829.58.829,1.244,0,.083-.083.5-.083.5-.166.083-.332.746-.332.995,0,.5.5,2.985.995,2.985.415,0,.746-.746.746-.995s0-.332-.083-.332v-.995c.083-.083.083-.5.083-.5,0-.083,0-.58-.166-.5v-1.575c-.083,0-.166,0-.166-.166v-.58h.415c1.244,0,.332,1.244.912,1.244.415,0,.912-.746,1.409-.746h.166l.5.746h.415c-.083-.332.166-1.244.58-1.244l.829.995h.5v-.829c0-.083.166-.995.415-.995h1.078c0,.083,0,.249-.166.249v1.575a2.727,2.727,0,0,1,.5.5h.083c.166,0,0-.5.332-.5V361.48a8.471,8.471,0,0,1,1.492-1.492.766.766,0,0,1,.746.829c0,.746-.912.995-1.327.995V363.3c-.083,0-.166.083-.166.249a3.6,3.6,0,0,0,.58.332c.332,0,.415-.5.58-.5h.083c.5.5.829,2.073,1.409,2.073h.166a10.681,10.681,0,0,1,.5-2.073l.083-.083V362.06c0-.083-.332-.332-.332-.5,0-.332.332-.332.5-.332.332,0,.5,0,.58.5h1.824c0,.332-.415.332-.415.746,0,.249.332.332.332.58,0,.332-.083.332-.083.58,0,.083,0,.332.166.332v1.741c.083,0,.083.249.083.332,0,.332-.332.5-.332.746,0,.332.332.829.332,1.244,0,.083,0,.332-.083.332v3.482s-.415.5-.5.58h-.083c-.083,0-.083-.083-.166-.083-.415,0-.415.5-.829.5-1.078,0-.58-1.575-1.492-1.575-.332,0-.746,1.078-1.078,1.492h0c-.083,0-.332,0-.332-.249h-1.907c0-.332-1.327-.083-1.327-1.244h-.332c0,.332.332.746.332,1.078v.083l-.166.249h-1.741c-.332,0-.332-.995-.332-.995h-.083c-.083,0-.995.995-1.492.995-.083,0-.166,0-.166-.083h-2.239c0,.249-.332.083-.415.083,0,0-.332.083-.415-.083H292c0,.249-.332.083-.415.083-.415,0-.415-.332-.829-.332,0,0-.166-.166-.166.083h-.829c-.166,0-.415-.58-.415-.746h-.5c0,.249.083.249.083.5a.464.464,0,0,1-.415.5c-.083,0-.166.083-.332-.083h-.829c-.083.083-.166.083-.332.083-.415,0-2.073-.5-2.073-1.327C285.038,371.1,285.2,371.1,285.2,370.848Zm-1.99-61.932c0-.332-.415-.332-.415-.829,0-.249.083-.249.083-.58-.332,0-.58.58-.58.829C282.3,308.667,282.966,308.916,283.214,308.916Zm-.58,1.327h.083v-.083h-.083Zm1.99-7.545h.166c.166,0,.829-.332.829-.829,0-.332-.332-.746-.58-.746-.415,0-.5.249-1.078.249v.5C284.458,301.537,284.79,302.034,284.624,302.7Zm-.5,40.128h.166v-.083h-.166Zm.332,17.577c.166,0,.332.083.332.249,0,.249-.083.332-.332.332a.348.348,0,0,1-.332-.332A.37.37,0,0,1,284.458,360.4Zm.332-51.652c.332,0,.415-.249.415-.58h-.912C284.292,308.5,284.458,308.75,284.79,308.75Zm.663,40.376v-.249c-1.327-1.244-.166-.249-.746-1.078h-.083c-.166,0-.166.249-.166.5A.919.919,0,0,0,285.453,349.126Zm-.663-11.276a.538.538,0,0,0,.415-.5h-.415Zm.249,6.881h.166V344.4h-.166Zm.829,1.99v-1.078c-.166,0-.829.249-.829.58C285.038,346.722,285.536,346.722,285.867,346.722Zm.415-12.022c.166,0,.5,0,.5-.332v-.995c0-.249-.829-.5-.912-.5-.166,0-.5-.083-.5.249v1.244C285.867,334.452,285.867,334.7,286.282,334.7Zm-.663-1.327v.5h-.083v-.5Zm-.083,6.964h.58a.655.655,0,0,0-.415-.5h-.166Zm1.492-3.233c0-.746-.332-.746-.332-1.741h-.166a.762.762,0,0,0-.829.746C285.7,336.939,286.7,337.1,287.028,337.1Zm-.58-28.935c-.332,0-.5,1.244-.5,1.492h1.078c0-.083,0-.5.166-.5v-.995Zm-.5,31.008h.912a.548.548,0,0,0-.58-.5h-.332Zm1.078-37.889v-.5h-.415C286.7,301.04,286.862,301.288,287.028,301.288Zm-.083,42.366h.083c.166-.5.995-.746.995-1.327-.58,0-.58.58-1.078.58v.746Zm.083,8.457c0,.249.415.249.5.249.58,0,.166-.995.58-1.078V349.79c-.5-.249.083-1.492-.58-1.492-.5,0-.332.58-.58.829V350.7l.083.083Zm-.083,16.83h.083v-.249h-.083Zm.249-67.156h.415a.464.464,0,0,0-.415-.5Zm.166,55.631h.332v-.083h-.332Zm.995-46.926c.083,0,.166-.249.166-.332a3.6,3.6,0,0,0-.58-.332c-.083,0-.415.166-.415.332v.083C287.857,310.242,288.189,310.491,288.355,310.491Zm-.746,35.153c.829,0,.415-.083.995-.249a1.881,1.881,0,0,1,.083-.332c0-.5-.332-.995-.746-.995h-.083A8.948,8.948,0,0,0,287.608,345.644Zm.249-6.8h.083v-.083h-.083Zm.249-8.954h.083v-.332h-.083Zm.5,5.306a3.076,3.076,0,0,1,.166-.746c0-.166.083-.249.166-.249h.995c.166,0,.332-.746.332-.829-.5,0-2.239.332-2.239,1.078C288.106,334.866,288.272,335.2,288.6,335.2Zm-.332-29.184c.58,0,.415-1.244.912-1.244.166,0,.166.166.58.166,0-.5-.5-1.99-.912-1.99l-.083.083c0,.332,0,1.244-.5,1.327Zm0,26.7h.083v-.5h-.083Zm.249,5.472c.746,0,.415-.995,1.327-.995v-1.741C288.852,335.446,288.52,337.436,288.52,338.182Zm.249,28.852h.083v-.083h-.083Zm.249-57.124h.083v-.166h-.083Zm0,38.8h.083v-.083h-.083Zm.746,10.2c0,.332.166.5.166.746,0,.5-.332.829-.58.829-.083,0-.415,0-.415-.332v-.829c0-.332.415-.332.5-.332A.627.627,0,0,1,289.764,358.909Zm-.746,6.135c.415,0,.58-.249.58-.746h-.58Zm.166-35.153h.083v-.332h-.083Zm0,39.547h.415v-.083h-.415Zm.249-42.034h.166v-.083h-.166Zm.249,40.708h.083v-.083h-.083Zm.249-47.838h.083v-.083h-.083Zm0,1.741h.58a.536.536,0,0,0-.415-.5h-.166Zm.166-1.492h.083v-.083H290.1Zm.5,6.467a9.533,9.533,0,0,0,1.492-2.57h-.415a1.145,1.145,0,0,1-1.078.829l-.083.166c0,.5.415.249.415.5s-.58.249-.58.58C290.344,326.741,290.427,326.99,290.593,326.99Zm0-14.26h.332v-.083h-.332Zm0,5.14h.083V317.7h-.083Zm.829,15.255V332.3h-.746C290.759,332.71,291.008,333.125,291.422,333.125Zm0,8.042v-.995h-.746C290.759,340.836,290.925,341.167,291.422,341.167Zm-.415,3.068a1.264,1.264,0,0,0,.415-.746c0-.166-.332-.58-.332-.58h-.083Zm.249-21.307c.58,0,1.824-.083,1.824-.829-.912,0-.995.746-1.824.58Zm.415,11.773v-.5h-.415A.464.464,0,0,0,291.671,334.7Zm-.166-18.323h.083v-.332h-.083Zm.249,13.763h.332v-.166h-.332Zm.083-9.2h.746a1.215,1.215,0,0,0,.166-.332v-1.078C292.168,319.445,291.837,320.274,291.837,320.938Zm.083-7.3h.829v-.5h-.829Zm0,26.033H292v-.083h-.083Zm0,32H292v-.083h-.083Zm.332-61.186h.5v-.166h-.5Zm0,31.173h.332a6.574,6.574,0,0,0-.332-.746Zm.166-30.013h.083v-.083h-.083Zm.829-5.14c.332,0,.58-.166.58-.5v-2.073c-.083,0-1.244.58-1.244.829v.829C292.915,305.931,292.749,306.512,293.246,306.512Zm-.415,31.92a2.593,2.593,0,0,0,.415-.829h-.415Zm0,4.643h.415v-.332h-.415Zm.5-9.2h.332v-.083h-.332Zm.249-7.628h.083v-.083h-.083Zm1.327-4.228c0-.746-.415-.829-.995-.829C293.827,321.932,294.49,322.015,294.9,322.015Zm-.415-4.809h.083c.083,0,.415-.5.5-.5v-.083a1.181,1.181,0,0,1-.166-.332h-.912A4.952,4.952,0,0,0,294.49,317.207Zm-.332,10.7h.746c0-.5.415-.829.58-1.078v-.166h-.332C294.987,326.99,294.158,327.4,294.158,327.9Zm.083,12.188h.332v-.249h-.332Zm.829-38.552v-.5h-.415A.538.538,0,0,0,295.07,301.537Zm-.415,22.966h.415v-.083h-.415Zm.249,5.638h.58v-.746A.67.67,0,0,0,294.9,330.14Zm.083-14.509h.5v-.5h-.5Zm0,13.1h.083v-.083h-.083Zm.166-16.747c.166,0,.332-.249.332-.5,0-.166-.083-.249-.332-.249Zm.249-7.71h.083v-.083H295.4Zm0,33.412h.083V337.6H295.4Zm.166-4.974h.415v-.5h-.415Zm0,35.9h.166v-.083h-.166Zm.249-61.1a2.507,2.507,0,0,0,.746-1.492C295.982,306.014,295.816,306.926,295.816,307.506Zm.083,26.614h.332a6.574,6.574,0,0,0-.332-.746Zm.166-22.634v1.244h.083l.746-.829v-.166c0-.332-.083-.5-.415-.5C296.4,311.237,296.065,311.237,296.065,311.486Zm.249-1.244h.58c0-.332-.166-.5-.415-.5h-.166Zm0,55.051h.415v-.083h-.415Zm.5-44.356h.083v-.083h-.083Zm.166-4.228a.538.538,0,0,0,.415-.5h-.415Zm0,13.763c.415,0,.58-.249.58-.746h-.58Zm.249-21.722h.083v-.083h-.083Zm0,57.124h.083v-.083h-.083Zm.415-58.367c.746,0,1.244-.995,1.244-1.741-.746,0-.58.249-.829.249-.332,0-.166-.249-.58-.249,0,.332.415.332.415.829C297.806,307.009,297.64,307.009,297.64,307.506Zm-.249,2.985h.415v-.5A.538.538,0,0,0,297.392,310.491Zm.166,9.534h.083v-.5h-.083Zm.166,14.343h.083v-.332h-.083Zm.083,32.251h.415v-.332C298.138,366.288,297.806,366.537,297.806,366.62Zm.995,5.223c0-.5-.166-.829-.5-.829C298.3,371.346,298.469,371.843,298.8,371.843Zm-.332-55.134h.58c0-.249-.58-.995-.58-.995Zm.166,52.232h.083v-.249h-.083Zm.166-42.449h.083v-.746H298.8Zm.663-23.546h.912l.166-.249V301.62C299.962,301.537,299.464,302.2,299.464,302.946Zm.663,24.458c.166,0,.415-.083.415-.332s-.746-.5-.829-.5C299.8,326.99,299.879,327.4,300.128,327.4Zm-.166,38.469h.166v-.083h-.166Zm0,3.068h.166v-.249h-.166Zm.166-53.061a.616.616,0,0,0,.5-.5A.535.535,0,0,0,300.128,315.88Zm.166-3.15h.083V312.4h-.083Zm.166-1.327h.083v-.5h-.083Zm.249,8.042a.257.257,0,0,0,.166.083V318.45c.166,0,.415,0,.415-.249-.166,0-.829.083-.829.5A3.852,3.852,0,0,0,300.708,319.445Zm0,48.418h.415v-.5h-.415Zm.166-41.7c.58,0,.746-.995.746-1.492h-.415C301.205,325.415,300.874,325.5,300.874,326.161Zm.5-11.69h.58v-.249h-.58Zm0,7.793h.083v-.332h-.083Zm.5-2.487h.083v-.5h-.083Zm.663-1.078h.083v-.249h-.083Zm.249-8.457h.083v-.5h-.083Zm.5-5.8v-1.492c-.332,0-.332.5-.332.746S303.029,304.439,303.278,304.439Zm.415,61.932h.332v-.083h-.332Zm0,1.741h.083v-.5h-.083Zm.249-53.393h.58v-.083h-.58Zm.995,57.207h-.58c0-.249.415-.332.58-.332Zm-.083-68.482h.083v-.332h-.083Zm0,2.239h.332V305.6h-.332Zm0,60.191h.332v-.5h-.332Zm0,4.477h.083v-.083h-.083Zm.166-68.068h.083V302.2h-.083Zm.912,1.741h.083v-.5h-.083Zm.912,61.269h.58v-.083h-.58Z" fill="#305268"/>
      <path id="r_2_" d="M341,371.843c-.166,0-.332.083-.332.5,0,.332.083.332.083.746h-1.244c-.083-.249-.995-.58-1.244-1.244l-.083-.083v-2.239l.083-.083v-2.653c.166,0,.166-.332.166-.5,0-.5-.332-.5-.332-.829,0-.166,0-.166.083-.166v-1.741l.166-.083v-1.492c-.332-.249,0-.829-.332-.995v-1.244c0-.5.5-.083.5-.5-.5-.332-.5-.5-.5-1.078,0,0-.083-.5.083-.332v-1.492c.166,0,.166-.5.166-.5,0-.58-.332-.58-.332-1.078s.332-1.244.332-1.741c0-.332-.332-.332-.332-.746,0-.083,0-.083.083-.083V350.7c.166,0,.166-.5.166-.5,0-.5-.332-.58-.332-.995,0-.5.332-.5.332-1.078,0-.5-.332-.5-.332-1.078s.166-.746.746-.746v-.083l-.5-.746c0-.249.083-.249.083-.5,0-.332-.332-.829-.332-1.244l.5-.746v-.083c0-.5-.332-.5-.332-1.078v-.5c.083,0,.083-.332.083-.5,0-.249-.083-.249-.083-.5,0-.083,0-.083.083-.249v-1.244l-.083-.166v-1.741a19.365,19.365,0,0,0,.746-2.321v-.332c-.166,0-.746-.332-.746-.58v-2.57c0-.249.166-.249.415-.249.083,0,.415,0,.415.249v1.244c.415.166.332,1.078.912,1.078.332,0,.332-.083.5-.083.415,0,.332.829.912.829,0-.5-.5-.746-.5-1.244,0-.083,0-.5.166-.5h.995a1.215,1.215,0,0,0,.166-.332c0-1.244-.58.332-.415-1.492H341.5c-.083,0-.083.332-.083.332l-.912,1.078h-.083a2.726,2.726,0,0,1-.5-.5v-1.492c-.083,0-.166-.083-.166-.249.083-.083.415-.5.5-.58.083,0,.083,0,.166.083h.746c.083-.58,1.078-2.073,1.658-2.073l1.244-1.492c.415,0,.58-.249.912-.249h.083l.5.58h.166c.5,0,1.327-2.073,1.824-2.57h.083c.332,0,.415.083.415.5,0,.249-.083.249-.083.332.166,0,1.409-.166,1.409-.5,0-.249-.083-.249-.083-.58v-.249l.746-.829c.166,0,.332.332.332.5,0,.332-.083.332-.083.746v.249l.746.829.746-.829v-.083c0-.083.083-.249-.083-.332,0-.083-.083-.332-.083-.5a1.125,1.125,0,0,1,.58-1.078v-.249c0-.995-1.99-.332-1.741-2.321h.083c-.332,0-.083.332-.332.5a2.051,2.051,0,0,1-.829,2.073h-.166c-.166,0-.166-.083-.415-.083-.415,0-.829,1.492-1.409,1.492-.083,0-.58-.995-.995-.995-.166,0-.5,0-.5.249v1.244c0,.083-3.565,2.321-3.648,2.321L341,327.4c-.415-.083-.746,1.575-1.741,1.492,0,.332-.332.829-.58.829-.083,0-.166-.166-.166-.249,0-.249.083-.249.083-.5s-.083-.249-.083-.5c0-.332.083-.332.083-.58,0-.332-.083-.332-.083-.746,0-.249.083-.5.415-.5.083,0,.166.083.332.083,0-.332,0-.746-.5-.746V324.5c.332-.249.5-1.327.829-1.327.083,0,.415,0,.415.249v1.741c-.332.083-.332.332-.332.58s0,.5.166.5h.083c0-.249,0-.995.415-.995.166,0,.083.083.5.083v-1.741c-.083,0-.083-.083-.083-.249,0-.249.083-.249.083-.5-.912-1.741-1.824-.829-2.4-2.985l-.083-.166V318.2a1.309,1.309,0,0,0,.58-1.244,2.931,2.931,0,0,1-.083-.5c-.166,0-.332-.746-.332-.995l.5-.746c0-.332-.332-.332-.332-.746,0-.249.083-.249.083-.5,0-.332-.332-.995-.332-1.327,0-.249.083-.249.083-.5s0-.332-.083-.332v-.995c.083,0,.083-.249.083-.332,0-.249-.083-.249-.083-.5,0-.332.083-.332.083-.58,0-.332,0-.58-.332-.746v-1.244l.5-.746V306.1a1.267,1.267,0,0,0-.332-.829v-1.492c.332-.249.083-.829.58-.829.083,0,.166,0,.166.083h.415c.5,0,.5-.332.829-.332a.257.257,0,0,1,.166.083h1.824l.083-.083c.083,0,.332-.083.415-.083.415,0,.415.5.829.5.166,0,.083-.58.415-.58,1.327,0,1.492,3.068,2.985,3.068.166,0,.746-.166.746-.58v-.166a.9.9,0,0,1-.58-.995v-.332c.332,0,1.658-.249,1.824-.746h2.073a2.105,2.105,0,0,1,.746,1.078c0,.166,0,.166-.083.249v1.244s.332.249.332.332v.083s0,.166-.083.166v1.492c.166.166.083.332.083.5,0,.083.083.332-.083.5v1.244c.166,0,.083.332.083.332,0,.58-.332.58-.332,1.078,0,.58.332,1.244.332,1.741,0,.332-.083.332-.083.58,0,.746,1.409.829,1.824,1.492h.083c.415-.829-.58,0,.746-.995v-2.156c.415-.249.58-1.327.829-1.492-.332-2.073,2.321-3.814,2.57-5.555l.912-.995c.58-.083,1.078-1.327,1.492-1.327.332,0,.332.332.58.332h.166c-.083-.332.166-1.244.58-1.244.083,0,.083.083.415.083s.332-.083.58-.083c.332,0,.829,1.327.829,1.741,0,.332-.083.332-.083.58a.5.5,0,0,0,.083.332v.995l-.083.083v1.244c.083,0,.083.083.083.249,0,.332-.083.332-.083.58,0,.083,0,.249.083.249v.995l-.083.166v.995c.083,0,.083.083.083.332,0,.083,0,.249-.166.249v1.824l-.166.166v.829l.166.166v1.244s-.166.249-.332.249c-.332,0-.58-.249-.912-.249v.829h.912c.083-.083.083-.083.166-.083.332,0,.332.249.332.58,0,.249-.083.829-.415.995v2.239a.673.673,0,0,1,.415.746,1.061,1.061,0,0,1-.58,1.078c0,.249.415.332.415.746v.083l-.746.829h-.083c-.083,0-.083-.083-.332-.083-.083,0-.332,0-.332.083h-1.244l-.083.249H359.9c-.083-.332-.746,0-.829-.332h-.829l-.083.083h-.995c-.083.829-2.985,1.575-3.233,2.819-.332.995.166.995-.829,1.741-.166,0-.166-.083-.332-.083-.083,0-.166.249-.166.332,0,.249.5.083.5.5,0,.249-.083.249-.083.332,0,.249.083.249.083.5a1.366,1.366,0,0,1-.415.746v1.741a.081.081,0,0,0-.083.083c-.332,1.078.166,1.078-.912,1.824v.332c.332,0,.332-.083.58-.083.083,0,.415.083.415.332,0,.332-.415.746-.415,1.078,0,.58.415.58.415,1.244v.332c-.58.249,0,2.073-.58,2.321v1.99l.166.249v1.741l.083.083.083.332c0,.58-.415.58-.415,1.078,0,.332.332.746.332.995s-.332.332-.332.746c0,.249.083.332.415.5v1.244c.166,0,.166.249.166.332s0,.332-.166.332v4.974c-.415,0-.083.829-.415.995v1.492c.166.083.083.5.332.58V357.5l-.083.083v1.244c-.083.083-.166.083-.166.249,0,.249.332.332.332.746,0,.5-.332.58-.332.995a.555.555,0,0,0,.332.58v1.741a.627.627,0,0,0-.083.332c0,.332.415.332.415.58v.083c-.083,0-.332.332-.415.332v3.98c.083,0,.083.083.083.332s-.083.249-.083.58.083.332.083.58c0,.332-.083,1.741-.415,1.741h-1.409c0,.083-.166.083-.332.083s-.166-.083-.415-.083c-.332,0-.332.083-.58.083-1.244,0-.58-1.575-1.658-1.575v1.327c0,.332-.995.5-1.327.5-.083,0-.166,0-.332-.166H343.9l-.083.166h-1.41c-.332-1.244-1.327.746-1.244-1.492H341Zm-2.57-49.911c.415,0,.58.995.58,1.327a.994.994,0,0,1-.829-.995C338.182,322.015,338.348,321.932,338.431,321.932Zm.58-1.492h.083v-.083h-.083Zm0,23.878h.415v-.083h-.415Zm.415,17.245c0-.5-.083-.829-.415-.829C339.012,361.065,339.094,361.563,339.426,361.563ZM339.26,312.9c.166,0,.912-.166.912-.332h-.912Zm0,.746h.166v-.083h-.166Zm.415,54.388v-.746h-.415C339.26,367.532,339.343,368.029,339.675,368.029Zm-.249-17.162h.415v-.5A.538.538,0,0,0,339.426,350.867Zm.083,4.56h.083v-.166h-.083Zm0,11.441h.083v-.332h-.083Zm.415-26.282h.083v-.332h-.083Zm0,22.219h.083v-.166h-.083Zm.249-50.906c.415,0,.415-.5.746-.5.166,0,.166.249.58.249,0-.249-.58-1.327-.829-1.327C340.255,310.242,340.172,311.652,340.172,311.9Zm0,41.952c.912,0,1.327-1.741,1.907-1.824v-1.244c.166,0,.166-.249.166-.332a.464.464,0,0,0-.415-.5C341.333,349.872,340.172,353.355,340.172,353.852Zm.166-5.721h.083v-.415h-.083Zm0,22.219h.415v-.083h-.415Zm.332-20.893h.083v-.083h-.083Zm.663-26.779v-.5h-.415C341,322.43,341.25,322.679,341.333,322.679Zm-.249-12.768h.083v-.166h-.083Zm.166,33.412c.083,0,.415-.5.58-.58a.348.348,0,0,0-.332-.332C341.167,342.328,341.25,343.157,341.25,343.323Zm0,21.059h.332v-.5C341.5,363.884,341.25,364.3,341.25,364.381Zm0,2.239h.083v-.083h-.083Zm1.161-7.793c0-.332-.415-.5-.746-.5C341.665,358.661,342,358.827,342.411,358.827Zm-.5,12.519c0,.083.083.5.083.58h.083a7.183,7.183,0,0,0,.166-.829c0-.083-.083-.083-.083-.332,0-.5.166-.332.166-1.078-.746,0-.332.5-.58.58v.995Zm.249-62.43v.995h.829c0-.249-.166-.249-.166-.58s.166-.332.166-.746C342.991,308.5,342.162,308.5,342.162,308.916Zm0,37.309h.083v-.332h-.083Zm.249,19.318h.829c0-.332-.415-.58-.58-.58h-.166l-.083.58Zm.083-3.482h.746v-1.078C342.825,360.9,342.494,361.563,342.494,362.06Zm.083-41.122h.083v-.083h-.083Zm0,17.991h.083v-.083h-.083Zm0,10.032h.415v-.5h-.415Zm0,8.954h.083v-.332h-.083Zm.5-47.258h.332v-.58h-.332Zm0,49.165h.083v-.083h-.083Zm.083-2.736h.415v-.5C343.406,356.588,343.157,356.92,343.157,357.086Zm.166,2.985h.083v-.083h-.083Zm.166-45.1h.415c0-.083-.166-.332-.332-.332h-.083Zm0,55.134h.083v-.083h-.083Zm.249-49.247c.166,0,.58-.166.58-.5h-.58Zm0,1.824h.332V322.6h-.332Zm0,31.671h.083v-.166h-.083Zm.166-22.966c0,.249.415.249.5.249.58,0,.5-.58,1.244-.58v-1.244h-.5a2.931,2.931,0,0,1-.083-.5c.166-.5.415-.083.415-.58-1.244,0-.829,1.492-1.492,1.741v.912H343.9Zm0,7.3h.083v-.249H343.9Zm.5-30.179h.332a7.357,7.357,0,0,0,.166-1.244c0-.332-.083-.746-.5-.746a4.161,4.161,0,0,0-.166.995A4.966,4.966,0,0,0,344.4,308.5Zm-.166,7.876h.083v-.332h-.083Zm0,47.755h.332v-.083h-.332Zm.995-12.685c0-.746-.332-.829-.912-.829C344.318,350.867,344.981,351.448,345.23,351.448Zm-.746-10.861c.083,0,.58,0,.58-.249v-.995h-.332C344.815,340.089,344.483,340.089,344.483,340.587Zm.5,7.3h.415a.3.3,0,0,0-.332-.332h-.083Zm.166,2.238c.083,0,.58-.083.746-.083a.307.307,0,0,0,.166-.249v-1.078C345.4,348.629,345.147,349.458,345.147,350.121Zm.083-41.62h.166v-.166h-.166Zm0,34.158h.415c0-.083,0-.58-.332-.58h-.083Zm.332,18.737h.083v-.166h-.083Zm.58,3.9c0-.332-.083-.746-.5-.746C345.644,364.879,345.727,365.293,346.142,365.293Zm-.5,2.736h.829c0-.249-.166-.746-.332-.746C345.727,367.283,345.644,367.615,345.644,368.029Zm1.327-38.055c0-.083-.083-.995-.332-.995-.166,0-.746.332-.746.58C345.976,329.892,346.971,329.975,346.971,329.975Zm-.995,5.389h.332v-.083h-.332Zm0,4.974h.332v-.083h-.332Zm.332-30.179h.415c0-.249-.083-.332-.332-.332h-.083Zm.332,32.915c.332,0,.332-.58.332-.995h-.415c0,.332.166.332.166.58C346.722,342.825,346.639,342.825,346.639,343.074Zm.332,13.265c0-.332-.083-.746-.415-.746C346.556,355.925,346.639,356.339,346.971,356.339Zm-.415,12.436h.415v-.5C346.722,368.278,346.556,368.61,346.556,368.776Zm.083-40.128h.083v-.5h-.083Zm0,10.281h.083v-.083h-.083Zm.5-27.94v-.746H346.8C346.888,310.408,347.054,310.989,347.137,310.989Zm-.083,20.644h.332v-.5h-.332Zm.415,4.311c.083,0,.415-.083.415-.332s-.332-.332-.415-.332c-.166,0-.415.083-.415.332S347.219,335.944,347.468,335.944ZM347.219,308c.5,0,1.824-.5,1.824-1.244h-1.078C347.8,307.175,347.219,307.423,347.219,308Zm.249,6.467c.083.083.415.5.5.5.166,0,.332-.332.58-.332.083,0,.166,0,.166.083h1.741c0-.5.166-.58.166-.995,0-.332-.332-.332-.332-.58v-.083c0-.083.166-.332.332-.332v-1.244h-.829l-1.658,1.99a2.437,2.437,0,0,0-.829.995h.166Zm0,11.441h.083v-.083h-.083Zm.995,2.239V327.4c-.332-.166-.332-.249-.58-.249-.083,0-.415,0-.415.249v.083C348.131,327.4,348.048,328.151,348.463,328.151Zm-.995,21.556h.995v-.083h-.995Zm.58-37.557V311.4h-.415C347.634,311.652,347.8,312.149,348.048,312.149Zm-.249,3.98h.332v-.083H347.8Zm0,51.652h.083v-.249H347.8Zm.083-10.861c.166,0,.912-.249.912-.58C348.546,356.339,347.883,356.588,347.883,356.92Zm.083,6.964h.083V363.8h-.083Zm.166-14.923a.538.538,0,0,0,.415-.5h-.415Zm.249-28.6a.919.919,0,0,0,.995-.829c-.415,0-.415.58-.995.58Zm0,27.028h.332v-.5h-.332Zm.829-7.793c0-.58-.166-.829-.58-.829C348.546,339.343,348.795,339.592,349.209,339.592Zm-.663,20.478h.083v-.332h-.083Zm.415,1.99v-.746c-.166,0-.415.166-.415.332A.533.533,0,0,0,348.96,362.06Zm-.249-31.339h1.078v-.829c0-.332-.166-.332-.415-.332C348.96,329.477,348.712,330.223,348.712,330.721Zm.663-20.312c.332,0,1.078-.58,1.078-.995,0-.249-.912-1.244-1.327-1.244-.083,0-.415,0-.415.249v.829C349.209,309.5,349.043,310.408,349.375,310.408Zm.332,6.964c0-.746-.332-.829-.332-1.575h-.166a.466.466,0,0,0-.415.5C348.795,316.461,349.292,317.372,349.707,317.372Zm-.083,32.5v-.5h-.58C348.96,349.707,349.375,349.872,349.624,349.872Zm-.58,1.824c.166,0,.332-.5.332-.746h-.332Zm0,19.732h.083v-.083h-.083Zm.663-43.278.083-.083c0-.083.083-.58.083-.58l.083-.166v-1.161c-.415,0-.746.5-.746.995C349.292,327.4,349.375,328.151,349.707,328.151Zm-.249,38.718c.166,0,.415-.746.415-.995h-.415Zm.249-32.749a.538.538,0,0,0,.415-.5A.464.464,0,0,0,349.707,334.12Zm.166,9.7h.58v-.083l-.746-.829h0C349.707,343.323,349.872,343.323,349.872,343.82Zm-.166,3.565h.332v-.249h-.332Zm.415,9.2c0-.332-.083-.746-.415-.746C349.707,356.174,349.79,356.588,350.121,356.588Zm-.415,11.69h.332v-.5C349.872,367.781,349.707,368.029,349.707,368.278Zm.663-15.587h.083v-.083h-.083Zm0,11.69h.415c0-.083,0-.829-.415-.829Zm.249-2.57c.083,0,.332-.58.332-.746h-.332Zm0,10.529h.332v-.5h-.332Zm.415-35.651h.083v-.083h-.083Zm.415,2.9v-.746h-.415C351.033,338.929,351.2,339.592,351.448,339.592Zm-.415,12.353h.083v-.083h-.083Zm1.161-33.329c-.083-.995.912-1.244.912-2.073,0-.332-.166-.332-.166-.746H351.7s-.166.166-.166.249v.083c0,.249.332.249.332.58v.249a1,1,0,0,0-.58.995v.332C351.614,318.367,351.945,318.616,352.194,318.616Zm.663,1.575h.995c.083-.5,1.078,0,1.078-.5V318.7c0-.332-.415-.249-.5-.249-.415,0-1.824.249-1.824.995C352.608,319.86,352.774,319.86,352.857,320.191Zm.166,3.482h.083v-.332h-.083Zm.415-1.741c.166,0,.415-.332.415-.5h-.415Zm1.244-5.223h.332a1.481,1.481,0,0,1,.58-1.078v-.249c0-.083-.166-.746-.332-.746l-1.078,1.327v.249C354.184,316.626,354.35,316.709,354.681,316.709Zm1.492,1.658c.415,0,.912-.995.912-1.492s-.083-.58-.5-.58h-.166l-.746.829v.083C355.676,317.953,356.256,317.124,356.174,318.367Zm-.5,1.575h.58c0-.249-.332-.746-.5-.746h-.083Zm.746-5.472h.166a.762.762,0,0,0,.829-.746v-.249c-.332-.249-.746-1.327-1.078-1.327s-.083.5-.415.58v.5C355.925,313.89,356.422,313.89,356.422,314.471Zm.746-4.311c.166,0,1.492-1.327,1.492-1.824-.58,0-.5.083-.995.083,0-.249.083-.249.083-.58a1.4,1.4,0,0,0-1.244,1.492C356.588,309.745,356.837,310.159,357.168,310.159ZM357,322.015h.083v-.332H357Zm2.238-13.265h.332v-.5C359.407,308.253,359.241,308.5,359.241,308.75Zm.5,12.6h.083v-.5h-.083ZM360.9,312.4h.083a1.215,1.215,0,0,1,.166-.332v-.995c-.415,0-.58.249-.58.746C360.568,311.9,360.568,312.4,360.9,312.4Zm-.166,2.57h.415v-.083h-.415Zm.332-7.3h.083v-.083h-.083Zm1.244,2.819v-.5h-.415A.464.464,0,0,0,362.309,310.491Zm-.415,8.622h.415v-.083h-.415Z" fill="#305268"/>
    </g>
  </g>
</svg>
